<?xml version="1.0" encoding="utf-8"?>
<!-- Generator: Adobe Illustrator 22.0.1, SVG Export Plug-In . SVG Version: 6.00 Build 0)  -->
<svg version="1.1" id="Calque_1" xmlns="http://www.w3.org/2000/svg" xmlns:xlink="http://www.w3.org/1999/xlink" x="0px" y="0px"
	 viewBox="0 0 432 432" style="enable-background:new 0 0 432 432;" xml:space="preserve">
<style type="text/css">
	.st0{fill:#0E5A60;}
	.st1{fill:#828068;}
	.st2{fill:#7E2038;}
	.st3{fill:#1E4847;}
	.st4{fill:#AC847B;}
	.st5{fill:#FDECF0;}
	.st6{fill:#C5A36B;}
	.st7{fill:#D0AFA8;}
	.st8{fill:#9AA3AD;}
	.st9{fill:#9A8266;}
	.st10{fill:#91ACBA;}
	.st11{fill:#5C748E;}
	.st12{fill:#313F52;}
	.st13{fill:#96683E;}
	.st14{fill:#E4DDC2;}
	.st15{fill:#DED3C6;}
	.st16{fill:#E7E6E6;}
	.st17{fill:#BFD4DD;}
	.st18{fill:#FCE2DF;}
	.st19{fill:#CD8C56;}
	.st20{fill:#343434;}
	.st21{fill:#5D6F59;}
	.st22{fill:#C49253;}
	.st23{fill:#B88E5C;}
	.st24{fill:#E9A197;}
	.st25{fill:#72968E;}
	.st26{fill:#1B1B1B;}
	.st27{fill:#BD6581;}
	.st28{fill:#F2F2F2;}
	.st29{fill:#3D313B;}
	.st30{fill:#4E5254;}
	.st31{fill:#4B262E;}
	.st32{fill:#B093A5;}
	.st33{fill:#04707D;}
	.st34{fill:#A39BB2;}
	.st35{fill:#E3E1E0;}
	.st36{fill:#020203;}
	.st37{fill:#523F50;}
	.st38{fill:#81434D;}
	.st39{fill:#B58186;}
	.st40{fill:#563138;}
	.st41{fill:#E8B73C;}
	.st42{fill:#EC667A;}
	.st43{fill:#93A5A9;}
	.st44{fill:#A6394D;}
	.st45{fill:#6BC4CD;}
	.st46{fill:#3F6753;}
	.st47{fill:#66976A;}
	.st48{fill:#E3C8BD;}
	.st49{fill:#C8878D;}
	.st50{fill:#AE4043;}
	.st51{fill:#8B9976;}
	.st52{fill:#E7929D;}
	.st53{fill:#1E382B;}
	.st54{fill:#EF787A;}
	.st55{fill:#A81916;}
	.st56{fill:#E04747;}
	.st57{fill:#A5606F;}
	.st58{fill:#6C323C;}
	.st59{fill:#9C6434;}
	.st60{fill:#668CB9;}
	.st61{fill:#485B97;}
	.st62{fill:#F0C872;}
	.st63{fill:#D25215;}
	.st64{fill:#F1E0C6;}
	.st65{fill:#E1CBAC;}
	.st66{fill:#A9937F;}
	.st67{fill:#788A28;}
	.st68{fill:#A3AF32;}
	.st69{fill:#C1292E;}
	.st70{fill:#066938;}
	.st71{fill:#109F3D;}
	.st72{fill:#1861A9;}
	.st73{fill:#E00825;}
	.st74{fill:#F9B03D;}
	.st75{fill:#B4B4B4;}
	.st76{fill:#E52629;}
	.st77{fill:#DDC6A7;}
	.st78{fill:#746458;}
	.st79{fill:#754D24;}
	.st80{fill:#F39323;}
	.st81{fill:#A1AA40;}
	.st82{fill:#DBAD5D;}
	.st83{fill:#8EC045;}
	.st84{fill:#BA9BC9;}
	.st85{fill:#9B7574;}
	.st86{fill:#C68A89;}
	.st87{fill:#DF5564;}
	.st88{fill:#AA353D;}
	.st89{fill:#B75266;}
	.st90{fill:#DB6455;}
	.st91{fill:#975F74;}
	.st92{fill:#804F63;}
	.st93{fill:#FFFFFF;}
	.st94{fill:#CDCCCC;}
	.st95{fill:#A67D52;}
	.st96{fill:#DB8E98;}
	.st97{fill:#F3EED1;}
	.st98{fill:#CCD8B0;}
	.st99{fill:#47663C;}
	.st100{fill:#355129;}
	.st101{fill:#EEBCC5;}
	.st102{fill:#9A9999;}
	.st103{fill:#676767;}
	.st104{fill:#C69C6C;}
	.st105{fill:#4E3B3B;}
	.st106{fill:#D7ACAB;}
	.st107{fill:#CA5A69;}
	.st108{fill:#EC8A9F;}
	.st109{fill:#D4175B;}
	.st110{fill:#828BC5;}
	.st111{fill:#884C64;}
	.st112{fill:#F6B7BB;}
	.st113{fill:#F8D9C4;}
	.st114{fill:#F5CACD;}
	.st115{fill:#F6B1B3;}
	.st116{fill:#F9BFA1;}
	.st117{fill:#9BD2CC;}
	.st118{fill:#83B143;}
	.st119{fill:#959C57;}
	.st120{fill:#60643C;}
	.st121{fill:#C469A5;}
	.st122{fill:#9D8098;}
	.st123{fill:#9E1832;}
	.st124{fill:#BC1821;}
	.st125{fill:#AF5617;}
	.st126{fill:#DB6428;}
	.st127{fill:#FFFFFE;}
	.st128{fill:#141112;}
	.st129{fill:#EEC8A0;}
	.st130{fill:#CA1517;}
	.st131{fill:none;}
	.st132{fill:#B51918;}
	.st133{fill:#918A82;}
	.st134{fill:#878179;}
	.st135{fill:#F39BA4;}
	.st136{fill:#F0818B;}
	.st137{fill:#9F1915;}
	.st138{fill:#AB182A;}
	.st139{fill:#24612B;}
	.st140{fill:#114C25;}
	.st141{fill:#C7495D;}
	.st142{fill:#EBC164;}
	.st143{fill:#F6B6B8;}
	.st144{fill:#A9654E;}
	.st145{fill:#2D1B14;}
	.st146{fill:#CA3B63;}
	.st147{fill:#4A2C22;}
	.st148{fill:#E54967;}
	.st149{fill:#889F63;}
	.st150{fill:#808181;}
	.st151{fill:#8C633A;}
	.st152{fill:#CDAC81;}
	.st153{fill:#977D61;}
	.st154{fill:#423A30;}
	.st155{fill:#3D574A;}
	.st156{fill:#CCCDC9;}
	.st157{fill:#F1866C;}
	.st158{fill:#D8B67C;}
	.st159{fill:#432918;}
	.st160{fill:#D4A479;}
	.st161{fill:#E6C283;}
	.st162{fill:#3C3C3B;}
	.st163{fill:#C6C6C6;}
	.st164{fill:#F4A3A6;}
	.st165{fill:#B2B2B2;}
	.st166{fill:#1D71B8;}
	.st167{fill:#B4DCD3;}
	.st168{fill:#CEE7E1;}
	.st169{fill:#99D0C3;}
	.st170{fill:#3B3835;}
	.st171{fill:#E7CFB3;}
	.st172{fill:#DCC19F;}
	.st173{fill:#D4B188;}
	.st174{fill:#F3B68B;}
	.st175{fill:#F9C19B;}
	.st176{fill:#FCDCC8;}
	.st177{fill:#A68B74;}
	.st178{fill:#CCB295;}
	.st179{fill:#D2B89A;}
	.st180{fill:#3D3329;}
	.st181{fill:#966837;}
	.st182{fill:#A06E3B;}
	.st183{fill:#B57D44;}
	.st184{fill:#13110C;}
	.st185{fill:#D5D4D4;}
	.st186{fill:#9B6228;}
	.st187{fill:#844C16;}
	.st188{fill:#D01419;}
	.st189{fill:#4C2814;}
	.st190{fill:#B71918;}
	.st191{fill:#C11718;}
</style>
<g>
	<g>
		<g>
			<path d="M343.7,275.9c-0.5,6.5-2.1,12.8-5.2,18.6c-2.5,4.6-6.1,8.2-10.3,11.2c-3.6,2.6-7.6,4.4-11.7,5.9
				c-1.7,0.6-3.5,1.1-5.2,1.6c-0.2,0.1-0.3,0.1-0.6,0.2c0,0,0,0,0.1,0.1c0.1,0.1,0.2,0.3,0.4,0.4c0.6,0.6,1.2,1.2,1.8,1.7
				c2.3,2.4,4.5,5,6.5,7.7c1.4,2,2.8,4,3.9,6.2c2.2,4.2,3.7,8.7,4.5,13.4c0.3,1.5,2.9,12.1-3.1,17.5c-1.1,1-2.5,1.8-3.8,2.6
				c-2.8,1.8-5.9,2.8-9.2,3.4c-2.9,0.5-5.7,0.6-8.6,0.7c-0.2,0-0.3,0-0.6,0c2.7-2.5,3.9-5.7,4.8-9.1c0.2-0.9,0.4-1.7,0.6-2.6
				c0-0.1,0-0.1,0-0.2c0-0.3-0.1-0.5-0.4-0.6c-0.2-0.1-0.5,0-0.6,0.3c-0.1,0.2-0.2,0.5-0.3,0.8c-0.4,1.8-1,3.4-1.7,5.1
				c-0.5,1.2-1.1,2.4-2,3.5c-0.4,0.5-0.8,0.9-1.2,1.3c-1.5,1.4-3.3,1.7-5.3,1.2c-1.1-0.3-1.8-1-2.3-2.1c-0.4-0.9-0.5-1.9-0.6-2.9
				c-0.1-1.3-0.1-2.7,0-4c0.2-2.9,0.6-5.7,1.1-8.5c0.9-4.8,2-9.5,3.4-14.2c0.3-0.9,0.6-1.8,0.8-2.6c0-0.1,0.1-0.2,0.1-0.3
				c0.1-0.6-0.3-1-0.9-0.8c-0.3,0.1-0.6,0.3-0.8,0.5c-0.3,0.4-0.6,0.9-0.8,1.4c-0.6,2-1.3,4-1.8,6c-0.9,3.4-1.6,6.8-2.2,10.2
				c-0.4,2.5-0.8,4.9-1,7.4c-0.1,0.8-0.1,1.7-0.2,2.5c-0.1,1.6,0.1,3.2,0.5,4.8c0.3,1.1,0.7,2.1,1.6,2.9c0,0,0.1,0.1,0.1,0.2
				c-2.8-0.1-5.5-0.2-8.4-0.2c0.2-0.1,0.2-0.2,0.3-0.2c0.8-0.4,1.5-1,1.9-1.8c0.8-1.4,1.2-2.9,1.4-4.5c0.3-3-0.1-6-0.8-8.9
				c-1-4.4-2.6-8.7-4.2-12.9c-0.5-1.3-1-2.5-1.6-3.8c-0.3-0.7-0.7-1.3-1.1-1.9c-0.1-0.2-0.4-0.4-0.6-0.5c-0.4-0.2-0.9,0.1-0.9,0.5
				c0,0.3,0,0.5,0.1,0.8c0.4,1,0.8,2.1,1.2,3.1c1.8,4.3,3.4,8.7,4.6,13.1c0.7,2.4,1.1,4.9,1.3,7.4c0.1,1.9-0.1,3.8-0.7,5.7
				c-0.6,1.7-1.8,2.3-3.4,2.5c-1.8,0.2-3.2-0.4-4.5-1.6c-1.2-1.1-2.1-2.5-2.8-3.9c-0.8-1.6-1.2-3.3-1.6-5.1c-0.1-0.5-0.2-1-0.3-1.5
				c0-0.1-0.1-0.3-0.2-0.4c-0.1-0.1-0.3-0.2-0.4-0.2c-0.1,0-0.3,0.2-0.3,0.3c-0.1,0.1,0,0.3,0,0.4c0.3,2.6,0.7,5.1,1.9,7.4
				c0.9,1.8,1.9,3.5,3.5,4.7c0.2,0.2,0.4,0.3,0.6,0.5c0,0,0,0,0,0.1c-0.3,0-0.5,0-0.8,0c-1.9-0.2-3.8-0.3-5.6-0.6
				c-2.3-0.3-4.6-0.6-6.8-1.3c-4.9-1.5-8-4.7-9.5-9.6c-0.1-0.2-0.1-0.4-0.2-0.6c-2.1-0.1-4.1-0.9-5.9-2c-1.9-1.1-3.5-2.7-4.9-4.4
				c-2.2-2.6-3.9-5.6-5.3-8.7c-1.8-4-3.4-8.2-4.6-12.4c-0.9-3-1.7-6.1-2.2-9.3c-0.3-2.2-0.6-4.4-0.7-6.6c0.1-1,0.2-2,0.3-2.9
				c0.1-0.7,0.4-1.4,0.8-2c0.7-1,1.7-1.4,2.9-1.1c1,0.3,1.9,0.9,2.5,1.7c1.2,1.4,2.1,2.9,2.7,4.6c0.8,2.2,1.4,4.6,1.8,6.9
				c0.7,3.4,1.3,6.8,1.9,10.1c0.4,2,1,3.9,1.7,5.8c0,0.1,0.1,0.2,0.2,0.4c1.4,2.6,2.8,5.1,4.8,7.2c1.1,1.2,2.4,2.1,3.9,2.7
				c0.9-4.9,2.7-9.5,5-14c2.6-5,5.9-9.5,9.9-13.5c0.3-0.3,0.6-0.6,1-0.9c0.3-0.3,0.7-0.6,1-0.9c0.1-0.1,0.2-0.2,0.3-0.3
				c0,0,0,0,0.1-0.1c-0.7-0.1-1.3-0.3-1.9-0.4c-3.9-0.8-7.7-1.8-11.4-3.3c-4-1.7-7.6-3.9-10.8-6.9c-3.1-2.9-5.3-6.4-7-10.3
				c-1.8-4-2.9-8.2-3.5-12.6c-0.2-1.7-0.5-3.3-0.6-5c-0.1-1.2-0.1-2.3-0.1-3.5c0-1,0.1-2.1,0.1-3.1c0.2-2.5,0.6-4.9,1.1-7.3
				c0.5-2.5,1.1-4.9,1.6-7.4c0.2-1.1,0.4-2.3,0.5-3.5c0.3-2.2,0.6-4.4,0.7-6.6c0.1-2.4,0.1-4.7,0.2-7.1c0-1.2,0-2.4,0.1-3.6
				c0-0.5,0.1-0.9,0.2-1.3c0.5-2.1,2-3.5,4.3-3.9c1.7-0.3,3.3,0,4.9,0.4c2.1,0.6,4.1,1.4,6,2.3c1.9,0.9,3.8,1.8,5.7,2.8
				c0.3,0.2,0.6,0.2,0.9,0c4.4-2.2,9.1-3.7,14-4.7c2.7-0.6,5.4-1,8.1-1.2c2.7-0.3,5.3-0.3,8-0.3c6.6,0.1,13,1.3,19.2,3.4
				c0.4,0.1,0.7,0.1,1.1,0c3.6-1.5,7.2-2.9,10.8-4.3c2.4-0.9,4.9-1.6,7.4-2c1.7-0.3,3.4-0.4,5.1-0.2c1.6,0.2,2.5,0.9,2.9,2.5
				c0.3,1.4,0.5,2.8,0.5,4.2c0,2.1,0,4.2,0,6.2c0,2.5,0,5,0.2,7.4c0.1,2.7,0.3,5.4,0.6,8c0.2,2.3,0.6,4.7,0.8,7
				c0.1,0.9,0.1,1.7,0.2,2.6c0.1,1.2,0.3,2.4,0.4,3.6c0.1,0.6,0.1,1.1,0.1,1.7C343.6,270.9,343.9,273.4,343.7,275.9z"/>
			<g>
				<path class="st57" d="M289.4,279.6c0.3-0.5,0.6-1.1,0.9-1.6c0.4-0.6,0.8-1.2,1.4-1.6c1.5-1.2,3.2-0.5,3.6,1.4
					c0.1,0.7,0.1,1.4-0.1,2c-0.1,0.4-0.2,0.8-0.4,1.2c-0.8,1.9-2,3.7-3.5,5.1c-1,0.9-1.7,0.9-2.7,0c-1.6-1.4-3-2.9-4-4.8
					c-0.5-0.9-0.9-1.8-0.9-2.9c0-0.3,0-0.5,0.1-0.8c0.3-1.1,1.3-1.6,2.4-1.3c1,0.3,1.8,0.9,2.4,1.8
					C289,278.7,289.2,279.1,289.4,279.6z"/>
				<path class="st93" d="M290.4,294.4c-0.1,0.2-0.2,0.3-0.3,0.4c-0.5,0.8-1.3,1.1-2.2,1.1c-0.5,0-1-0.2-1.4-0.3
					c-0.3-0.1-0.4-0.3-0.4-0.5c0.1-0.2,0.3-0.4,0.6-0.3c0.3,0,0.6,0.1,0.9,0.2c0.9,0.1,1.5-0.2,1.7-1.1c0.1-0.4,0.1-0.8,0.1-1.2
					c0-1.2,0.1-2.4,0.1-3.6c0-0.2,0.1-0.4,0.1-0.6c0.1-0.2,0.2-0.4,0.4-0.4c0.3,0,0.4,0.2,0.5,0.4c0.1,0.6,0.3,1.2,0.4,1.8
					c0.1,1,0.2,2,0.4,2.9c0.1,0.4,0.2,0.8,0.4,1.2c0.3,0.8,1.1,1,1.8,0.5c0.4-0.2,0.7-0.5,1.1-0.8c0.2-0.1,0.4-0.2,0.6-0.1
					c0.2,0.2,0.3,0.4,0.1,0.6c-0.4,0.6-0.9,1.1-1.6,1.4c-0.5,0.2-1.1,0.3-1.6,0.1c-0.6-0.2-1-0.6-1.3-1.1
					C290.6,294.8,290.5,294.6,290.4,294.4z"/>
				<g>
					<g>
						<circle class="st28" cx="274.1" cy="267.5" r="6.4"/>
						<path class="st26" d="M277.6,264.9c-0.2,1.1-1.2,1.8-2.3,1.8c-1.3,0-2.4-1.1-2.4-2.4c0-0.4,0.1-0.8,0.3-1.2
							c-2,0.4-3.4,2.1-3.4,4.2c0,2.4,1.9,4.3,4.3,4.3c2.4,0,4.3-1.9,4.3-4.3C278.4,266.5,278.1,265.7,277.6,264.9z M273.6,269.8
							c-0.8,0-1.4-0.6-1.4-1.4c0-0.8,0.6-1.4,1.4-1.4c0.8,0,1.4,0.6,1.4,1.4C275,269.2,274.4,269.8,273.6,269.8z"/>
					</g>
					<g>
						<circle class="st28" cx="307.2" cy="267.5" r="6.4"/>
						<path class="st26" d="M310.7,264.9c-0.2,1.1-1.2,1.8-2.3,1.8c-1.3,0-2.4-1.1-2.4-2.4c0-0.4,0.1-0.8,0.3-1.2
							c-2,0.4-3.4,2.1-3.4,4.2c0,2.4,1.9,4.3,4.3,4.3c2.4,0,4.3-1.9,4.3-4.3C311.5,266.5,311.2,265.7,310.7,264.9z M306.7,269.8
							c-0.8,0-1.4-0.6-1.4-1.4c0-0.8,0.6-1.4,1.4-1.4c0.8,0,1.4,0.6,1.4,1.4C308.1,269.2,307.5,269.8,306.7,269.8z"/>
					</g>
				</g>
			</g>
		</g>
		<g>
			<path class="st94" d="M312.8,315.6c-0.4-0.1-0.9-0.2-1.3-0.3c-1.2-0.3-2.4-0.1-3.6,0c-2.1,0.1-3.9,1-5.6,1.9
				c-1.4,0.8-2.7,1.7-3.9,2.7c-1.8,1.5-3.7,3.1-5.3,4.8c-1,1.1-1.9,2.2-2.7,3.4c-0.3,0.4-0.5,0.9-0.9,1.3c-0.7,0.8-1.5,0.8-2.1-0.1
				c-0.2-0.3-0.4-0.6-0.6-0.9c-2.5-4.4-6-7.7-10.3-10.3c-1.5-0.9-3.1-1.6-4.8-2.1c0.3-0.3,0.7-0.6,1-0.9c0.1-0.1,0.2-0.2,0.3-0.3
				c1.1,0.3,2.2,0.7,3.2,1.3c4.3,2.3,8,5.4,10.8,9.4c0.4,0.6,0.8,1.2,1.1,1.8c0.1,0.2,0.2,0.3,0.3,0.5c0.1-0.2,0.2-0.3,0.2-0.4
				c1-1.7,2.3-3.3,3.8-4.7c2.3-2.2,4.6-4.2,7.2-6c1.4-1,3-1.8,4.6-2.4c1.5-0.6,3.1-0.8,4.6-0.9c0.6,0,1.2,0,1.7,0
				c0.1,0.1,0.2,0.3,0.4,0.4C311.7,314.4,312.3,315,312.8,315.6z"/>
			<path class="st55" d="M288.6,329.9c0.5-0.5,0.9-1,1.4-1.4c0.3-0.3,0.7-0.5,1.1-0.5c1.6-0.4,2.5,1,2.2,2.3
				c-0.1,0.3-0.2,0.6-0.3,0.9c-0.6,1-1.3,2-2.2,2.8c-1.1,0.9-2,1-3.3,0.3c-0.9-0.5-1.6-1.1-2.2-1.9c-0.4-0.6-0.7-1.2-0.9-1.9
				c-0.2-0.8,0.2-1.4,0.9-1.8c0.5-0.2,1-0.4,1.5-0.1c0.5,0.3,1,0.7,1.6,1C288.4,329.7,288.5,329.8,288.6,329.9z"/>
		</g>
	</g>
	<g>
		<path class="st95" d="M233.5,194.5c-0.6-3.1-2.2-5.6-4.8-7.4c-0.7-0.4-1.4-0.8-2.1-1.2c-3.5-1.9-7.1-2.5-11-1.7
			c-2.1,0.4-4.2,1-6.2,1.8c-1,0.4-2.1,0.8-3.2,1.1c-1.1,0.3-2.1,0.3-3.2,0c-0.9-0.3-1.7-0.5-2.6-0.8c-2.6-0.7-5-0.3-7.1,1.4
			c-1.9,1.5-3.2,3.4-3.9,5.7c-1.1,3.6-1.2,7.3-0.2,11c1,3.5,2.5,6.7,4.3,9.8c0.8,1.3,1.7,2.4,2.8,3.5c1.1,1.1,2.4,1.9,3.9,2.4
			c2.3,0.7,4.3-0.9,4.5-3c0.1-0.6,0-1.3-0.1-1.9c-0.3-1.6-1-3.1-1.9-4.4c-0.6-0.9-1.3-1.7-2-2.6c-1.2-1.6-2.4-3.2-3.5-4.8
			c-0.6-0.8-1-1.8-1.4-2.7c-0.5-1.5-0.3-3,0.4-4.4c0.5-1,1.3-1.3,2.4-1.1c0.2,0,0.4,0.1,0.6,0.2c1.9,0.8,3.4,2,4.6,3.6
			c0.8,1,1.7,1.2,2.7,0.5c0.5-0.4,1-0.9,1.4-1.3c0.5-0.5,0.8-1,1.3-1.5c0.7-0.8,1.5-1.4,2.5-1.9c2.1-0.9,4.5-0.5,5.9,1.1
			c1.2,1.3,1.9,2.9,2.2,4.6c0.3,2,0.1,3.9-0.3,5.9c-0.6,2.9-1.7,5.6-3,8.2c-1.6,3.2-3.8,6-6.2,8.6c-1.1,1.1-2.3,2.2-3.6,3
			c-2.2,1.3-4.4,2.6-6.6,3.9c-1.7,1-3.4,2-5.1,2.9c-2.5,1.4-4.9,2.9-7.3,4.5c-2.8,1.9-5.5,3.9-8,6.2c-2.5,2.3-4.8,4.8-6.9,7.5
			c-0.1,0.2-0.3,0.3-0.4,0.5c0-0.2-0.1-0.3-0.1-0.4c-0.1-1.9-0.3-3.7-0.6-5.6c-0.8-4.7-2.3-9.1-4.5-13.4c-1.1-2.2-2.4-4.2-3.9-6.2
			c-2.5-3.4-5.2-6.5-8.3-9.4c-0.1-0.1-0.2-0.3-0.4-0.4c0.3-0.1,0.4-0.1,0.6-0.2c1.7-0.5,3.5-1,5.2-1.6c4.2-1.4,8.1-3.3,11.7-5.9
			c4.2-3,7.8-6.6,10.3-11.2c3.2-5.8,4.8-12,5.2-18.6c0.2-2.5-0.1-5.1-0.1-7.6c0-0.6-0.1-1.1-0.1-1.7c-0.1-0.8-0.2-1.7-0.3-2.5
			c0-0.4-0.1-0.7-0.1-1.1c-0.1-0.9-0.1-1.7-0.2-2.6c-0.3-2.2-0.6-4.4-0.8-6.7c0-0.1,0-0.2,0-0.3c-0.2-2.7-0.4-5.3-0.6-8
			c-0.1-2.5-0.1-5-0.2-7.4c0-2.1,0-4.2,0-6.2c0-1.4-0.1-2.8-0.5-4.2c-0.4-1.5-1.3-2.3-2.9-2.5c-1.7-0.2-3.4-0.1-5.1,0.2
			c-2.5,0.4-5,1.1-7.4,2c-3.6,1.4-7.2,2.9-10.8,4.3c-0.4,0.2-0.7,0.2-1.1,0c-6.2-2.1-12.6-3.3-19.2-3.4c-2.7,0-5.3,0-8,0.3
			c-2.7,0.3-5.4,0.7-8.1,1.2c-4.8,1-9.5,2.5-14,4.7c-0.3,0.2-0.6,0.1-0.9,0c-1.9-0.9-3.8-1.9-5.7-2.8c-1.9-0.9-4-1.7-6-2.3
			c-1.6-0.4-3.2-0.7-4.9-0.4c-2.2,0.4-3.8,1.8-4.3,3.9c-0.1,0.4-0.2,0.9-0.2,1.3c0,1.2,0,2.4-0.1,3.6c0,2.4,0,4.7-0.2,7.1
			c-0.1,2.2-0.4,4.4-0.7,6.6c-0.1,1.2-0.3,2.3-0.5,3.5l0,0c-0.5,2.5-1.1,4.9-1.6,7.4c-0.2,1-0.4,2-0.6,3c-0.2,1.4-0.4,2.9-0.5,4.3
			c-0.1,1-0.1,2.1-0.1,3.1c0,1.2,0,2.3,0.1,3.5c0.1,1.7,0.4,3.3,0.6,5c0.6,4.4,1.7,8.6,3.5,12.6c1.7,3.8,3.9,7.3,7,10.3
			c3.1,3,6.8,5.2,10.8,6.9c3.7,1.5,7.5,2.5,11.4,3.3c0.6,0.1,1.2,0.2,1.9,0.4c-0.2,0.2-0.3,0.3-0.4,0.4c-0.7,0.6-1.4,1.2-2,1.8
			c-4,4-7.3,8.5-9.9,13.5c-2.8,5.4-4.9,11.2-5.5,17.3c-0.3,2.4-0.1,4.9,0.6,7.2c1.5,4.8,4.6,8.1,9.5,9.6c2.2,0.7,4.5,1.1,6.8,1.3
			c1.9,0.2,3.8,0.4,5.6,0.6c0.3,0,0.5,0,0.8,0c0-0.1,0-0.1,0-0.1c-0.2-0.2-0.4-0.3-0.6-0.5c-1.6-1.3-2.7-2.9-3.5-4.7
			c-1.1-2.4-1.6-4.9-1.9-7.4c0-0.1,0-0.3,0-0.4c0.1-0.1,0.2-0.3,0.3-0.3c0.1,0,0.3,0.1,0.4,0.2c0.1,0.1,0.1,0.2,0.2,0.4
			c0.1,0.5,0.2,1,0.3,1.5c0.3,1.8,0.8,3.5,1.6,5.1c0.7,1.5,1.6,2.8,2.8,3.9c1.3,1.2,2.7,1.8,4.5,1.6c1.6-0.2,2.8-0.8,3.4-2.5
			c0.7-1.9,0.8-3.8,0.7-5.7c-0.1-2.5-0.6-5-1.3-7.4c-1.3-4.5-2.9-8.8-4.6-13.1c-0.4-1-0.8-2.1-1.2-3.1c-0.1-0.2-0.1-0.5-0.1-0.8
			c0-0.5,0.5-0.7,0.9-0.5c0.2,0.1,0.5,0.3,0.6,0.5c0.4,0.6,0.8,1.3,1.1,1.9c0.6,1.2,1.1,2.5,1.6,3.8c1.6,4.2,3.2,8.5,4.2,12.9
			c0.7,2.9,1.1,5.9,0.8,8.9c-0.2,1.6-0.6,3.1-1.4,4.5c-0.4,0.8-1.1,1.4-1.9,1.8c-0.1,0-0.1,0.1-0.3,0.2c2.8,0.1,5.6,0.2,8.4,0.2
			c-0.1-0.1-0.1-0.2-0.1-0.2c-0.8-0.8-1.3-1.8-1.6-2.9c-0.4-1.6-0.5-3.2-0.5-4.8c0-0.8,0.1-1.7,0.2-2.5c0.2-2.5,0.5-5,1-7.4
			c0.6-3.4,1.4-6.8,2.2-10.2c0.5-2,1.2-4,1.8-6c0.2-0.5,0.5-1,0.8-1.4c0.2-0.2,0.5-0.4,0.8-0.5c0.5-0.2,1,0.2,0.9,0.8
			c0,0.1-0.1,0.2-0.1,0.3c-0.3,0.9-0.6,1.8-0.8,2.6c-1.4,4.7-2.5,9.4-3.4,14.2c-0.5,2.8-0.9,5.7-1.1,8.5c-0.1,1.3-0.2,2.7,0,4
			c0.1,1,0.2,2,0.6,2.9c0.4,1.1,1.2,1.8,2.3,2.1c2,0.5,3.8,0.2,5.3-1.2c0.4-0.4,0.9-0.9,1.2-1.3c0.9-1,1.4-2.3,2-3.5
			c0.7-1.7,1.3-3.3,1.7-5.1c0.1-0.3,0.1-0.5,0.3-0.8c0.1-0.3,0.4-0.4,0.6-0.3c0.2,0.1,0.4,0.3,0.4,0.6c0,0.1,0,0.1,0,0.2
			c-0.2,0.9-0.4,1.7-0.6,2.6c-0.9,3.3-2.1,6.5-4.8,9.1c0.3,0,0.5,0,0.6,0c2.9-0.1,5.8-0.2,8.6-0.7c3.3-0.6,6.4-1.6,9.2-3.4
			c1.3-0.8,2.6-1.7,3.8-2.6c0.9-0.7,1.8-1.3,2.6-2c2.9-2.2,5.7-4.4,8.6-6.6c3.1-2.4,6.3-4.7,9.7-6.8c4.9-3,9.7-5.9,14.6-8.9
			c3.5-2.1,7-4.3,10.1-6.9c2.6-2.1,5.2-4.3,7.5-6.8c3.4-3.6,6-7.8,8.1-12.3c1.1-2.5,2.1-5,2.9-7.6
			C233.8,201.7,234.2,198.1,233.5,194.5z"/>
		<g>
			<path class="st57" d="M133.3,182.3c0.3-0.5,0.6-1.1,0.9-1.6c0.4-0.6,0.8-1.2,1.4-1.6c1.5-1.2,3.2-0.5,3.6,1.4
				c0.1,0.7,0.1,1.4-0.1,2c-0.1,0.4-0.2,0.8-0.4,1.2c-0.8,1.9-2,3.7-3.5,5.1c-1,0.9-1.7,0.9-2.7,0c-1.6-1.4-3-2.9-4-4.8
				c-0.5-0.9-0.9-1.8-0.9-2.9c0-0.3,0-0.5,0.1-0.8c0.3-1.1,1.3-1.6,2.4-1.3c1,0.3,1.8,0.9,2.4,1.8
				C132.9,181.4,133.1,181.8,133.3,182.3z"/>
			<path class="st36" d="M134.3,197.1c-0.1,0.2-0.2,0.3-0.3,0.4c-0.5,0.8-1.3,1.1-2.2,1.1c-0.5,0-1-0.2-1.4-0.3
				c-0.3-0.1-0.4-0.3-0.4-0.5c0.1-0.2,0.3-0.4,0.6-0.3c0.3,0,0.6,0.1,0.9,0.2c0.9,0.1,1.5-0.2,1.7-1.1c0.1-0.4,0.1-0.8,0.1-1.2
				c0-1.2,0.1-2.4,0.1-3.6c0-0.2,0.1-0.4,0.1-0.6c0.1-0.2,0.2-0.4,0.4-0.4c0.3,0,0.4,0.2,0.5,0.4c0.1,0.6,0.3,1.2,0.4,1.8
				c0.1,1,0.2,2,0.4,2.9c0.1,0.4,0.2,0.8,0.4,1.2c0.3,0.8,1.1,1,1.8,0.5c0.4-0.2,0.7-0.5,1.1-0.8c0.2-0.1,0.4-0.2,0.6-0.1
				c0.2,0.2,0.3,0.4,0.1,0.6c-0.4,0.6-0.9,1.1-1.6,1.4c-0.5,0.2-1.1,0.3-1.6,0.1c-0.6-0.2-1-0.6-1.3-1.1
				C134.5,197.5,134.4,197.3,134.3,197.1z"/>
			<g>
				<path d="M113.8,178.9c-1.6-0.1-2.9-0.6-3.9-1.8c-0.2-0.3-0.4-0.6-0.6-0.9c-0.1-0.3,0-0.6,0.2-0.8c0.2-0.2,0.5-0.2,0.8,0
					c0.1,0.1,0.2,0.1,0.3,0.2c0.1,0.1,0.3,0.3,0.4,0.4c1.8,1.5,4,1.5,5.8-0.1c0.3-0.3,0.6-0.6,0.9-0.8c0.3-0.2,0.7-0.2,0.9,0
					c0.3,0.2,0.3,0.6,0.1,0.9c-0.1,0.1-0.1,0.2-0.2,0.3c-0.8,1.2-2,2-3.3,2.4C114.8,178.8,114.3,178.8,113.8,178.9z"/>
				<path d="M155.1,178.9c-1.6-0.1-2.9-0.6-3.9-1.8c-0.2-0.3-0.4-0.6-0.6-0.9c-0.1-0.3,0-0.6,0.2-0.8c0.2-0.2,0.5-0.2,0.8,0
					c0.1,0.1,0.2,0.1,0.3,0.2c0.1,0.1,0.3,0.3,0.4,0.4c1.8,1.5,4,1.5,5.8-0.1c0.3-0.3,0.6-0.6,0.9-0.8c0.3-0.2,0.7-0.2,0.9,0
					c0.3,0.2,0.3,0.6,0.1,0.9c-0.1,0.1-0.1,0.2-0.2,0.3c-0.8,1.2-2,2-3.3,2.4C156.1,178.8,155.6,178.8,155.1,178.9z"/>
			</g>
		</g>
		<g>
			<path class="st96" d="M187,166.8c-6.4-5.8-13.8-9.6-22-11.8c-3.7-1-7.5-1.7-11.3-2.2c-3-0.4-6-0.7-9.1-0.9
				c-3.1-0.2-6.2-0.3-9.3-0.1c-11.6,0.4-22.8,2.7-33.7,6.6c-3.8,1.4-7.4,3-10.9,4.8c-1.6,0.8-3.2,1.6-4.7,2.4
				c-1.2,0.7-2.4,1.5-3.6,2.3l2.2-10.4l0,0c1-0.5,2-1,3-1.5c6.9-3.4,14.2-5.7,21.7-7.4c4.2-0.9,8.4-1.8,12.6-2.5
				c3.1-0.5,6.3-0.9,9.5-1.1c3-0.2,6-0.3,9-0.3c2.5,0.1,5.1,0.2,7.6,0.3c3.5,0.2,6.9,0.5,10.3,1c8.7,1.4,17.1,3.8,24.7,8.4
				c1,0.6,2,1.2,2.9,1.8c0.2,2.2,0.5,4.4,0.8,6.7c0.1,0.9,0.1,1.7,0.2,2.6C186.9,166.1,187,166.5,187,166.8z"/>
			<g>
				<g>
					<g>
						<path class="st97" d="M111.6,155.4c0.2-0.4,0.5-0.8,0.7-1.1c0,0,0.1-0.1,0.1-0.1c0.2-0.2,0.4-0.3,0.7-0.1
							c0.2,0.1,0.4,0.2,0.6,0.4c0.4,0.3,0.8,0.5,1.2,0.7c0.5,0.2,1,0.3,1.5,0.2c0.3,0,0.4,0.1,0.4,0.4c0.1,0.8,0,1.5-0.2,2.3
							c-0.1,0.4-0.3,0.8-0.5,1.2c-0.3,0.5-0.6,1-1,1.5c-0.6,0.9-1.4,1.6-2.2,2.3c-0.1,0.1-0.2,0.2-0.4,0.2c-0.3,0.1-0.5,0.1-0.7-0.1
							c-0.1-0.1-0.2-0.2-0.3-0.4c-0.2-0.3-0.3-0.6-0.4-0.8c-0.4-1.2-0.5-2.3-0.4-3.5c0.1-0.8,0.3-1.6,0.6-2.4
							C111.4,155.8,111.5,155.6,111.6,155.4z"/>
						<path class="st97" d="M89.5,150.3c1.5-1.8,3.5-3,5.6-3.9c0.8-0.3,1.5-0.5,2.3-0.8c0.9-0.3,1.6,0,2,0.9
							c0.4,0.7,0.5,1.5,0.6,2.3c0.1,1.8-0.3,3.4-1.2,4.9c-0.5,0.9-1.1,1.7-1.9,2.5c-1,0.9-2.2,1.4-3.5,1.5c-0.2,0-0.4,0-0.5,0
							c-0.4,0-0.5-0.2-0.5-0.6c0-0.3,0-0.6-0.1-0.9c-0.2-1-0.8-1.8-1.6-2.3c-0.5-0.3-1.1-0.5-1.8-0.6c-0.2,0-0.4,0-0.6-0.1
							c-0.5-0.1-0.6-0.5-0.3-0.9c0.4-0.6,0.9-1.3,1.4-1.8C89.4,150.4,89.5,150.4,89.5,150.3z"/>
						<path class="st97" d="M167.6,158.6c-0.9-0.1-1.9-0.4-2.8-0.7c-2.1-0.7-4-1.9-5.7-3.4c-0.4-0.3-0.8-0.8-1.1-1.2
							c-0.2-0.2-0.3-0.4-0.4-0.6c-0.1-0.3-0.1-0.6,0.2-0.9c0.1-0.1,0.2-0.2,0.3-0.2c0.6-0.4,1.2-0.8,1.8-1.2
							c1.3-0.8,2.7-1.2,4.2-1.4c1.8-0.2,3.6,0.1,5.2,0.7c0.4,0.2,0.9,0.4,1.3,0.6c0.1,0,0.2,0.1,0.3,0.2c0.3,0.2,0.4,0.5,0.3,0.9
							c-0.1,0.3-0.3,0.7-0.4,1c-0.6,1.3-1.1,2.7-1.6,4.1c-0.2,0.6-0.4,1.1-0.6,1.7c-0.1,0.4-0.4,0.6-0.8,0.5
							C167.8,158.6,167.7,158.6,167.6,158.6z"/>
					</g>
					<g>
						<path class="st98" d="M114.2,156.9c-0.1,0.2-0.2,0.4-0.3,0.6c-0.2,0.4-0.3,0.8-0.5,1.2c0,0.1,0,0.2,0,0.2
							c0.3,0.5,0.6,1,0.8,1.5c0,0.1,0.1,0.1,0.1,0.2c0,0.1,0,0.2-0.1,0.2c-0.1,0-0.2,0-0.2-0.1c0-0.1-0.1-0.1-0.1-0.2
							c-0.2-0.4-0.4-0.8-0.6-1.1c0,0-0.1-0.1-0.1-0.1c0,0,0,0,0,0c0,0.1,0,0.1-0.1,0.2c-0.2,0.5-0.3,1-0.4,1.4
							c-0.1,0.3-0.1,0.5-0.2,0.8c0,0.1-0.1,0.2-0.2,0.3c0,0.1-0.1,0.1-0.2,0c-0.1,0-0.1-0.1-0.1-0.1c0-0.1,0-0.2,0-0.2
							c0.1-0.4,0.2-0.8,0.3-1.2c0.1-0.3,0.2-0.7,0.3-1c0,0,0,0,0-0.1c-0.1,0.1-0.2,0.2-0.2,0.3c-0.2,0.2-0.3,0.5-0.5,0.7
							c0,0.1-0.1,0.1-0.1,0.2c-0.1,0.1-0.2,0.1-0.2,0c-0.1-0.1-0.1-0.2,0-0.3c0.1-0.1,0.2-0.2,0.2-0.3c0.3-0.5,0.7-0.9,1.1-1.3
							c0,0,0.1-0.1,0.1-0.1c0.2-0.6,0.4-1.3,0.7-1.9c0,0,0-0.1,0.1-0.2c-0.1,0-0.1,0.1-0.2,0.1c-0.6,0.3-1.2,0.8-1.7,1.3
							c-0.1,0.1-0.1,0.1-0.2,0.2c-0.1,0.1-0.2,0.1-0.3,0c-0.1-0.1-0.1-0.2,0-0.3c0.3-0.3,0.7-0.6,1-0.9c0.4-0.3,0.8-0.6,1.3-0.8
							c0.2-0.1,0.2-0.2,0.3-0.3c0.1-0.1,0.1-0.3,0.2-0.4c0.1-0.1,0.2-0.2,0.3-0.2c0.1,0,0.2,0,0.3,0.1c0.1,0,0.2,0.1,0.1,0.3
							c0,0.1-0.1,0.1-0.1,0.2c-0.1,0.2-0.2,0.4-0.3,0.5c0,0.1,0,0.1,0,0.2c0.3,0.5,0.6,1.1,0.9,1.7c0.1,0.2,0.1,0.4,0.2,0.6
							c0,0.1,0,0.1,0,0.2c0,0.1-0.1,0.1-0.1,0.2c-0.1,0-0.1,0-0.2-0.1c0-0.1-0.1-0.1-0.1-0.2c-0.2-0.6-0.4-1.2-0.8-1.7
							C114.4,157.1,114.3,157,114.2,156.9C114.3,156.9,114.3,156.9,114.2,156.9z"/>
						<path class="st98" d="M163.7,153c-0.5-0.1-1-0.3-1.5-0.4c-0.8-0.2-1.5-0.3-2.3-0.4c-0.3,0-0.5,0-0.8,0c-0.2,0-0.3-0.1-0.3-0.1
							c0-0.1,0.2-0.1,0.3-0.2c1-0.2,1.9-0.2,2.9,0c0.6,0.1,1.2,0.2,1.8,0.4c-0.1-0.1-0.1-0.2-0.2-0.3c-0.3-0.4-0.6-0.8-1-1.2
							c-0.1-0.1-0.1-0.1-0.1-0.2c0,0,0-0.1,0-0.1c0,0,0.1,0,0.1,0c0.1,0,0.2,0.1,0.3,0.2c0.3,0.3,0.5,0.5,0.8,0.8
							c0.3,0.3,0.5,0.7,0.7,1c0.1,0.1,0.1,0.2,0.2,0.2c0.9,0.2,1.8,0.5,2.7,0.7c0-0.2,0-0.3,0-0.5c-0.1-0.7-0.3-1.4-0.6-2.1
							c-0.1-0.2-0.2-0.4-0.3-0.6c0-0.1-0.1-0.1-0.1-0.2c0-0.1,0-0.2,0.1-0.2c0,0,0.1,0,0.2,0c0.1,0.1,0.2,0.2,0.2,0.3
							c0.5,0.7,0.8,1.6,0.9,2.4c0.1,0.3,0.1,0.7,0.1,1c0.4,0.2,0.8,0.4,1.2,0.5c0.1,0,0.1,0.1,0.2,0.1c0.3,0.1,0.3,0.3,0.2,0.6
							c0,0,0,0,0,0c-0.2,0.3-0.2,0.4-0.6,0.2c-0.5-0.2-0.9-0.5-1.4-0.7c-0.1,0.1-0.2,0.1-0.2,0.2c-0.6,0.5-1.2,1-1.9,1.4
							c-0.1,0.1-0.3,0.1-0.4,0.2c-0.1,0-0.1,0-0.2,0c0-0.1,0-0.1,0.1-0.2c0.1-0.1,0.1-0.1,0.2-0.2c0.5-0.4,1-0.9,1.5-1.3
							c0.1-0.1,0.2-0.2,0.3-0.3c-0.1,0-0.1-0.1-0.1-0.1c-0.7-0.2-1.4-0.5-2.1-0.7c-0.1,0-0.2,0-0.3,0.1c-0.6,0.6-1.3,1.1-2.2,1.5
							c-0.1,0.1-0.3,0.1-0.4,0.1c-0.1,0-0.2,0-0.2-0.1c0-0.1,0-0.2,0.1-0.2c0.2-0.1,0.4-0.2,0.6-0.4c0.4-0.3,0.8-0.6,1.2-0.9
							C163.4,153.3,163.6,153.2,163.7,153z"/>
						<path class="st98" d="M95.2,151c-0.6,0.6-1.2,1.3-1.7,1.9c0.1,0,0.2,0.1,0.2,0.1c1,0.3,2.1,0.6,3.1,0.7c0.2,0,0.3,0.1,0.3,0.2
							c0,0.1-0.1,0.2-0.3,0.2c-0.7,0-1.4,0-2.1-0.2c-0.6-0.1-1.2-0.3-1.8-0.4c-0.2,0.2-0.4,0.4-0.7,0.6c0,0,0,0.1-0.1,0.1
							c-0.1,0.1-0.3,0.1-0.4,0.1c-0.1-0.1-0.1-0.4,0-0.5c0.2-0.2,0.4-0.3,0.6-0.4c0.1-0.1,0.2-0.1,0.2-0.2c-0.2-1.1-0.2-2.2-0.2-3.2
							c0,0,0-0.1,0-0.1c0-0.1,0.1-0.1,0.2-0.1c0.1,0,0.1,0.1,0.2,0.1c0,0.1,0,0.1,0,0.2c0.1,0.7,0.2,1.5,0.2,2.2
							c0,0.2,0,0.3,0.1,0.5c0.1-0.1,0.2-0.2,0.3-0.3c0.4-0.5,0.8-1,1.2-1.4c0.3-0.3,0.4-0.6,0.3-1c0-0.6,0.1-1.2,0.1-1.9
							c0-0.1,0-0.2,0.2-0.2c0.1,0,0.2,0.1,0.2,0.2c0,0.5,0.1,1,0.1,1.5c0,0.1,0,0.1,0,0.2c0.1-0.1,0.1-0.1,0.2-0.2
							c0.6-0.8,1.2-1.6,1.7-2.4c0-0.1,0.1-0.1,0.1-0.2c0.1-0.1,0.2-0.1,0.2,0c0,0,0.1,0.1,0.1,0.2c0,0,0,0.1-0.1,0.1
							c-0.5,0.9-1,1.7-1.6,2.6c-0.1,0.2-0.3,0.4-0.4,0.6c0.1,0,0.1,0.1,0.2,0.1c0.6,0.2,1.3,0.2,1.9,0.2c0.1,0,0.1,0,0.2,0
							c0.1,0,0.1,0.1,0.1,0.1c0,0.1-0.1,0.1-0.1,0.2c0,0-0.1,0-0.1,0c-0.6,0.1-1.3,0.2-1.9,0.1C95.8,151,95.5,151,95.2,151z"/>
					</g>
				</g>
				<g>
					<g>
						<path class="st99" d="M137.8,157.3c-2.4,0.4-4.7,0.5-7.1-0.2c-0.8-0.2-1.6-0.5-2.2-1.1c-0.4-0.4-0.8-0.8-0.9-1.3
							c-0.1-0.5,0-0.9,0.2-1.3c0.1-0.1,0.2-0.3,0.3-0.4c1.8-2.2,3.9-4.2,6.2-5.9c1-0.8,2.1-1.5,3.2-2.1c0.8-0.4,1.6,0,1.6,0.9
							c0,0.6,0,1.3,0,1.9c0,0.9,0.2,1.9,0.5,2.8c0.4,1.4,1,2.8,1.9,4c0.1,0.1,0.2,0.3,0.2,0.4c0.1,0.5,0,0.8-0.4,1.1
							c-0.2,0.1-0.5,0.3-0.7,0.4C139.5,156.8,138.6,157.1,137.8,157.3z"/>
						<path class="st99" d="M192.7,155.4c-0.9,0.7-1.8,1.2-2.8,1.5c-1.4,0.4-2.8,0.6-4.2,0.8c-0.7,0.1-1.4,0-2.1-0.1
							c-0.4-0.1-0.6-0.4-0.8-0.7c-0.1-0.2-0.1-0.4-0.2-0.5c-0.2-1.7-0.9-3.2-1.7-4.7c-0.1-0.2-0.2-0.3-0.3-0.5
							c-0.2-0.4-0.1-0.8,0.3-1c0.3-0.1,0.6-0.2,0.9-0.2c0.9,0,1.7,0,2.6,0.1c2.9,0.4,5.5,1.3,7.9,2.9c0.3,0.2,0.5,0.4,0.8,0.6
							c0.6,0.4,0.6,1,0.1,1.5C193.1,155.1,192.9,155.2,192.7,155.4z"/>
					</g>
					<g>
						<path class="st100" d="M136.1,152.3c-0.7,0.2-1.3,0.4-1.9,0.6c-0.1,0-0.2,0.2-0.3,0.4c-0.4,0.7-0.9,1.4-1.6,1.8
							c-0.1,0.1-0.2,0.1-0.3,0.2c-0.2,0.1-0.4,0.1-0.5-0.1c-0.1-0.1-0.1-0.3,0.1-0.5c0.2-0.2,0.4-0.4,0.6-0.5
							c0.3-0.3,0.6-0.5,0.8-0.9c-0.2,0-0.3,0-0.4,0.1c-0.8,0.1-1.6,0.2-2.3,0.3c-0.2,0-0.4,0-0.6,0c-0.3,0-0.5-0.2-0.5-0.4
							c0-0.2,0.2-0.3,0.4-0.3c0.5-0.1,1-0.1,1.5-0.1c0.8-0.1,1.5-0.2,2.3-0.5c-0.1-0.1-0.1-0.2-0.2-0.3c-0.4-0.5-0.8-0.9-1.2-1.4
							c0-0.1-0.1-0.1-0.1-0.2c-0.1-0.2-0.1-0.3,0-0.4c0.1-0.1,0.3-0.1,0.4,0c0.1,0.1,0.3,0.3,0.4,0.4c0.5,0.5,1,0.9,1.5,1.2
							c0.2,0.1,0.4,0.2,0.6,0c0.2-0.1,0.5-0.2,0.8-0.4c-0.1-0.3-0.2-0.5-0.3-0.8c-0.2-0.4-0.5-0.9-0.8-1.3c-0.2-0.3-0.2-0.5-0.1-0.7
							c0.2-0.1,0.4-0.1,0.6,0.2c0.5,0.4,0.8,0.9,1.2,1.5c0.1,0.2,0.2,0.3,0.3,0.5c0.2-0.1,0.3-0.2,0.4-0.3c0.2-0.1,0.4-0.2,0.7-0.1
							c0.2,0.1,0.2,0.3,0.3,0.6c0,0.3-0.1,0.6-0.4,0.8c-0.3,0.1-0.4,0.4-0.4,0.7c-0.1,0.8-0.3,1.5-0.7,2.2c-0.1,0.2-0.3,0.4-0.4,0.6
							c-0.1,0.1-0.3,0.2-0.4,0.1c-0.2-0.1-0.2-0.2-0.1-0.4c0.1-0.3,0.2-0.7,0.4-1c0.1-0.4,0.2-0.9,0.4-1.3
							C136.1,152.5,136.1,152.5,136.1,152.3z"/>
						<path class="st100" d="M185.7,154.6c0.5,0.4,1.1,0.8,1.6,1.2c0.1,0.1,0.2,0.1,0.2,0.2c0,0.1,0.1,0.2,0,0.3
							c0,0.1-0.2,0.1-0.3,0.1c-0.1,0-0.1-0.1-0.2-0.1c-0.8-0.4-1.5-0.9-2.1-1.5c-0.2-0.2-0.4-0.3-0.7-0.3c-0.3,0-0.5,0-0.8,0
							c-0.4,0-0.6-0.3-0.6-0.6c0-0.3,0.2-0.4,0.5-0.4c0.3,0.1,0.6,0.1,0.9,0.2c0.1-0.2,0.3-0.3,0.4-0.5c0.4-0.5,0.9-1,1.4-1.4
							c0.2-0.2,0.4-0.2,0.5-0.1c0.1,0.1,0.1,0.3-0.1,0.5c-0.4,0.4-0.8,0.9-1.2,1.3c-0.1,0.1-0.1,0.2-0.2,0.3c0.5,0,1,0.1,1.5,0.1
							c0.1,0,0.2-0.1,0.2-0.1c0.4-0.5,0.8-0.9,1.3-1.4c0.2-0.2,0.4-0.2,0.5-0.1c0.1,0.1,0.1,0.3-0.1,0.5c-0.2,0.2-0.4,0.3-0.6,0.5
							c-0.2,0.2-0.3,0.3-0.5,0.6c0.2,0,0.3,0.1,0.4,0c0.7,0,1.3,0,2,0c0.1,0,0.3,0,0.4,0c0.1,0,0.2,0.2,0.2,0.3
							c0,0.1-0.1,0.2-0.2,0.2c-0.1,0.1-0.2,0.1-0.4,0.1c-0.5,0-0.9,0-1.4,0c-0.1,0-0.3,0-0.4,0.1c0.3,0.1,0.5,0.1,0.8,0.2
							c0.1,0,0.3,0,0.4,0.1c0.1,0.1,0.2,0.2,0.2,0.3c0,0.1-0.1,0.2-0.2,0.2c-0.1,0-0.2,0-0.3,0c-0.8-0.2-1.6-0.4-2.3-0.8
							C186.4,154.4,186.1,154.5,185.7,154.6C185.7,154.5,185.7,154.5,185.7,154.6z"/>
					</g>
				</g>
				<g>
					<g>
						<path class="st101" d="M98.3,156.9c0-0.8,0.1-1.5,0.5-2.2c0.6-1.2,1.6-1.9,2.9-2c1.1-0.2,2.2,0.1,3.3,0.5c1,0.4,1.8,1,2.2,2
							c0.4,0.7,0.7,1.5,0.9,2.3c0.2,0.5,0.1,0.9-0.1,1.3c-0.1,0.2-0.3,0.5-0.5,0.7c-0.9,1.1-2,1.8-3.3,2.3c-1.2,0.4-2.4,0.3-3.5-0.3
							c-0.8-0.4-1.3-1-1.7-1.8C98.5,158.7,98.3,157.9,98.3,156.9z"/>
						<path class="st101" d="M171.7,150.5c0-0.2,0-0.3,0-0.5c0-0.3,0-0.6,0.1-0.9c0.1-0.7,0.5-1.3,1.1-1.7c0.4-0.3,0.9-0.5,1.4-0.6
							c1-0.3,2-0.4,3.1-0.4c1.5,0,2.6,0.6,3.5,1.7c0.3,0.4,0.6,0.9,0.8,1.3c0.4,0.8,0.9,1.6,1.3,2.4c0.7,1.3,1.1,2.6,1.3,4
							c0.1,0.9-0.1,1.8-0.6,2.5c-0.3,0.4-0.6,0.8-0.8,1.2c-0.2,0.3-0.3,0.7-0.2,1c0.1,0.5,0.2,0.9,0.2,1.4c0,1.6-0.7,2.9-2,3.8
							c-0.8,0.6-1.8,0.7-2.8,0.5c-0.8-0.1-1.5-0.4-2.3-0.5c-1.2-0.3-2.4-0.6-3.5-0.9c-1.2-0.3-2.4-0.8-3.4-1.6
							c-1.4-1-2.2-2.3-2.6-3.9c-0.2-1-0.2-2.1,0.1-3.1c0.3-1.6,1-3,1.7-4.5c0.5-1,1.3-1.4,2.4-1.4
							C171,150.5,171.3,150.5,171.7,150.5z"/>
					</g>
					<g>
						<path class="st96" d="M102,160.5c-0.4,0-0.8-0.1-1.2-0.2c-0.6-0.1-0.9-0.5-0.9-1.1c0-0.1,0-0.2,0-0.4c0-0.2-0.1-0.2-0.2-0.3
							c-0.1,0-0.2-0.1-0.3-0.1c-0.2-0.1-0.3-0.3-0.3-0.5c0-0.2,0-0.3,0-0.5c0-0.4,0-0.8,0.1-1.3c0-0.2,0-0.4,0-0.6
							c0.1-1.1,0.8-1.8,1.8-2.3c0.7-0.3,1.5-0.3,2.3-0.1c0.4,0.1,0.8,0.2,1.2,0.3c0.9,0.2,1.5,0.7,1.8,1.5c0.3,0.7,0.5,1.5,0.6,2.3
							c0,0.2,0,0.4-0.1,0.6c-0.2,0.7-0.8,1.2-1.5,1.2c-0.3,0-0.6,0.1-0.8,0.3C103.7,160.2,102.9,160.5,102,160.5z M105.1,159
							C105.1,159,105.1,159,105.1,159c0.2,0,0.3-0.1,0.4-0.1c0.6-0.2,0.9-0.8,0.8-1.4c-0.1-0.6-0.3-1.2-0.6-1.7
							c-0.6-0.8-1.3-1.4-2.3-1.8c-0.3-0.1-0.6-0.2-0.8-0.2c-0.5,0-1,0.2-1.5,0.3c-0.7,0.2-1.1,0.6-1.2,1.4c-0.1,0.7-0.2,1.4-0.3,2.1
							c-0.1,0.4,0,0.4,0.3,0.6c0.3,0.2,0.5,0.4,0.6,0.7c0,0.2,0.1,0.3,0.2,0.5c0.3,0.6,0.8,0.8,1.5,0.8c0.5-0.1,1-0.3,1.5-0.5
							c0.8-0.4,1-1,1.1-1.9c0-0.7-0.3-1.3-0.6-1.9c-0.1-0.3-0.4-0.4-0.7-0.4c-1,0-1.7,0.5-2.2,1.3c-0.2,0.2-0.2,0.5-0.1,0.8
							c0.2,0.4,0.4,0.7,0.8,0.8c0.2,0.1,0.5,0.1,0.8,0.1c0.2,0,0.3-0.1,0.4-0.2c0.2-0.2,0.3-0.5,0.3-0.7c0-0.3,0.1-0.5,0-0.8
							c-0.2,0-0.3,0.1-0.5,0.3c-0.1,0.1-0.2,0.2-0.3,0.3c-0.1,0.1-0.2,0.1-0.3,0c-0.1-0.1-0.1-0.2-0.1-0.3c0.1-0.4,0.4-0.7,0.7-0.8
							c0.4-0.2,0.8,0,1,0.4c0.1,0.3,0.1,0.5,0.1,0.8c-0.1,0.4-0.3,0.8-0.5,1.1c-0.3,0.4-0.8,0.6-1.3,0.5c-0.2,0-0.3-0.1-0.5-0.1
							c-0.4-0.2-0.9-0.4-1.2-0.7c-0.2-0.2-0.3-0.4-0.3-0.6c-0.1-0.6,0-1.1,0.4-1.5c0.6-0.6,1.3-1.1,2.1-1.4c0.4-0.1,0.7-0.1,1.1,0
							c0.8,0.3,1.3,0.9,1.5,1.7C105.4,157.2,105.5,158.1,105.1,159z"/>
						<path class="st96" d="M167.7,157.4c0-1,0.1-1.7,0.3-2.5c0.3-1.2,1.1-2,2.3-2.4c0.4-0.1,0.8-0.2,1.3-0.3
							c0.3-0.1,0.5-0.2,0.7-0.3c0.3-0.1,0.5-0.3,0.8-0.4c0.1-0.1,0.2-0.2,0.2-0.4c0.1-0.3,0.1-0.6,0.2-0.9c0.2-0.7,0.6-1.1,1.1-1.5
							c1.1-0.7,2.2-0.6,3.4-0.2c1.4,0.5,2.4,1.4,3.3,2.6c0.4,0.5,0.6,1.1,0.8,1.8c0.1,0.6,0.1,1.2,0.1,1.8c0,0.1,0,0.3,0,0.4
							c0,0.8-0.1,1.5-0.4,2.2c-0.2,0.4-0.3,0.8-0.5,1.2c-0.5,1-0.7,2.1-0.7,3.2c0,0.4,0,0.7-0.1,1.1c0,0.2-0.1,0.4-0.2,0.7
							c-0.1,0.2-0.3,0.4-0.5,0.4c-0.8,0.2-1.6,0.5-2.4,0.4c-0.4,0-0.9,0-1.3-0.1c-0.9-0.2-1.8-0.4-2.7-0.6c-1.1-0.3-2.1-0.7-3-1.3
							c-0.1-0.1-0.2-0.1-0.3-0.2c-1.2-0.7-1.9-1.8-2.1-3.2C167.7,158.3,167.7,157.8,167.7,157.4z M172.4,152.8c-0.1,0-0.1,0-0.1,0
							c-0.8,0.4-1.6,0.9-2.3,1.3c-0.6,0.4-0.9,0.9-1.1,1.6c-0.2,1.2-0.2,2.4,0,3.6c0.1,0.4,0.3,0.8,0.6,1.1c0.3,0.4,0.7,0.7,1.1,1
							c0.7,0.5,1.6,0.8,2.4,1.1c1.1,0.4,2.1,0.7,3.3,0.8c0.9,0.1,1.7-0.1,2.5-0.4c0.5-0.2,0.8-0.6,0.8-1.1c0.1-0.9,0.3-1.8,0.6-2.7
							c0.4-1.1,0.7-2.1,0.8-3.3c0.1-0.8,0.3-1.6,0.1-2.4c-0.1-0.4-0.2-0.9-0.4-1.3c-0.2-0.4-0.4-0.8-0.7-1.2
							c-0.4-0.7-0.9-1.2-1.6-1.5c-0.8-0.5-1.6-0.7-2.6-0.6c-0.5,0-0.9,0.3-1.2,0.8c0,0.1-0.1,0.1-0.1,0.2c-0.2,0.6-0.4,1.1-0.6,1.7
							c-0.2,0.5-0.4,1-0.7,1.5c-0.7,0.9-1.4,1.8-2.1,2.7c-0.2,0.3-0.4,0.6-0.6,0.9c-0.3,0.7-0.2,1.3,0.3,1.8
							c0.4,0.3,0.7,0.7,1.2,0.9c0.6,0.3,1.2,0.6,1.8,0.9c0.2,0.1,0.5,0.2,0.7,0.3c0.9,0.3,1.3,0.1,1.7-0.7c0.2-0.4,0.4-0.9,0.6-1.3
							c0.3-0.6,0.5-0.7,1.2-0.4c0.2,0.1,0.3,0.2,0.6,0.3c-0.1-0.6-0.1-1.1-0.2-1.5c-0.1-0.9-0.4-1.7-0.9-2.5
							c-0.3-0.5-0.8-0.8-1.5-0.5c-0.5,0.2-1,0.6-1.4,1c-0.2,0.2-0.4,0.5-0.4,0.8c-0.1,0.4,0.1,0.6,0.5,0.7c0.3,0,0.5-0.1,0.8-0.2
							c0.1-0.1,0.3-0.1,0.4-0.2c0.1,0,0.3,0,0.3,0.2c0.1,0.1,0,0.3-0.1,0.4c-0.4,0.2-0.9,0.5-1.4,0.4c-0.7,0-1.2-0.6-1.1-1.4
							c0.2-1.2,1.2-2.1,2.3-2.4c0.9-0.2,1.6,0.1,2.1,0.7c0.2,0.3,0.4,0.6,0.6,1c0.5,1.1,0.6,2.3,0.6,3.5c0,0.6-0.3,0.8-0.9,0.6
							c-0.2-0.1-0.4-0.1-0.7-0.2c-0.2,0-0.3,0-0.4,0.2c-0.1,0.3-0.2,0.5-0.3,0.8c-0.1,0.4-0.3,0.7-0.6,1c-0.3,0.4-0.8,0.6-1.3,0.6
							c-0.4,0-0.7-0.1-1-0.3c-0.4-0.2-0.9-0.4-1.3-0.7c-0.8-0.4-1.6-0.8-2.3-1.4c-1-0.8-1.3-1.9-1.1-3.1c0.1-0.8,0.6-1.4,1.1-1.8
							c0.4-0.3,0.8-0.6,1.2-0.9C172.1,153,172.3,152.9,172.4,152.8z"/>
					</g>
				</g>
				<g>
					<g>
						<path class="st39" d="M143.9,142.4c1.5,0,2.9,0.1,4.4,0.3c2.1,0.2,3.4,1.4,4,3.4c0.1,0.4,0.2,0.9,0.2,1.3
							c0.4,2.9-0.5,5.5-2.4,7.7c-0.9,1.1-2,2-3.4,2.5c-0.9,0.3-1.8,0.4-2.8,0.4c-1.6-0.1-3.1-0.3-4.6-0.7c-0.1,0-0.1,0-0.2-0.1
							c-2.4-0.8-3.7-2.5-4.2-4.9c-0.3-1.6-0.1-3.1,0.3-4.6c0.2-0.6,0.5-1.1,0.8-1.7c0.5-0.8,1.2-1.4,1.9-2.1c0.8-0.7,1.7-1,2.7-1.2
							C141.7,142.5,142.8,142.5,143.9,142.4z"/>
						<path class="st39" d="M87.4,164.6c-1.9-0.1-3.5-0.8-4.8-2.3c-0.9-1-1.4-2.3-1.6-3.6c-0.1-0.6-0.2-1.2-0.2-1.8
							c0.1-2.4,1.2-4.2,3.4-5.2c0.9-0.4,1.8-0.5,2.8-0.4c0.6,0.1,1.2,0.3,1.9,0.4c0.8,0.2,1.5,0.3,2.3,0.5c1.2,0.3,2.2,0.9,2.9,2
							c0.4,0.6,0.6,1.2,0.7,1.9c0.1,1.3-0.2,2.5-0.6,3.6c-0.6,1.5-1.6,2.7-2.9,3.7c-0.9,0.6-1.9,1.1-3,1.2c-0.1,0-0.1,0-0.2,0
							C87.8,164.6,87.6,164.6,87.4,164.6z"/>
						<path class="st39" d="M110.6,150.5c0.1-2.4,0.8-4.3,2.4-5.8c0.7-0.7,1.6-1.2,2.6-1.3c0.8-0.1,1.6,0,2.3,0.4
							c0.5,0.3,0.9,0.6,1.3,1c0.9,0.9,1.8,2,2.6,3.1c0.6,1,1.1,2,1.2,3.2c0.1,1.4-0.3,2.6-1.4,3.5c-0.6,0.5-1.2,0.9-1.9,1.2
							c-0.6,0.3-1.1,0.5-1.7,0.7c-0.7,0.3-1.4,0.3-2.2,0.1c-0.6-0.1-1.1-0.3-1.7-0.4c-1.8-0.6-2.9-2-3.3-3.8
							C110.7,151.7,110.7,151,110.6,150.5z"/>
					</g>
					<g>
						<path class="st38" d="M150.4,149.9c-0.1,0.8-0.1,1.7-0.2,2.5c-0.1,1-0.6,1.8-1.2,2.6c-0.6,0.7-1.4,1-2.2,1.2
							c-1.5,0.3-3,0.3-4.4,0c-0.5-0.1-1-0.2-1.5-0.4c-0.8-0.2-1.5-0.6-2-1.3c-0.6-0.7-1-1.4-1.3-2.2c-0.4-1.1-0.8-2.1-1-3.3
							c-0.1-0.3-0.1-0.6-0.1-0.9c0-0.7,0.4-1.2,0.9-1.6c0.2-0.2,0.3-0.3,0.3-0.6c0-0.4,0.1-0.8,0.2-1.2c0.1-0.4,0.4-0.7,0.8-0.9
							c1-0.6,2-0.6,3.1-0.5c0.9,0.1,1.7,0.2,2.6,0.2c0.9,0,1.9,0.1,2.8,0.3c1.6,0.4,2.8,1.3,3.1,3
							C150.3,147.9,150.3,148.9,150.4,149.9z M142.6,149.4c0,0.3-0.1,0.6-0.1,0.8c0,0.2-0.2,0.3-0.4,0.3c-0.2,0-0.4-0.1-0.4-0.3
							c0-0.1,0-0.1,0-0.2c0-0.3,0-0.7,0-1c0-0.5,0.4-0.9,0.9-0.9c0.7,0,1.4,0.2,1.9,0.6c0.9,0.6,1.1,1.6,0.6,2.5
							c-0.4,0.8-1.1,1.4-2,1.7c-0.2,0.1-0.5,0.1-0.7,0.1c-1,0-1.7-0.5-2.2-1.3c-0.7-1.1-1-2.4-0.9-3.7c0.1-1.2,1.2-2.3,2.5-2.3
							c1.6,0,3,0.3,4.4,1c0.6,0.3,1.1,0.8,1.4,1.4c0.3,0.6,0.4,1.2,0.4,1.9c0,0.7-0.2,1.3-0.4,1.9c-0.6,1.3-1.5,2.3-2.8,2.8
							c-0.6,0.2-1.1,0.4-1.8,0.5c0.1,0.1,0.1,0.1,0.2,0.1c0.8,0.2,1.6,0.3,2.4,0.1c0.5-0.1,1-0.2,1.5-0.4c1.2-0.5,1.8-1.5,2-2.7
							c0.2-1.6,0.2-3.1-0.2-4.7c-0.2-0.8-0.5-1.5-1-2.1c-0.3-0.3-0.6-0.5-1.1-0.6c-0.3,0-0.6-0.1-0.8-0.1c-1.2,0-2.3,0-3.5-0.2
							c-1.1-0.2-2.2-0.1-3.2,0.1c-0.3,0.1-0.4,0.2-0.5,0.5c0,0.2,0,0.3,0,0.5c0.1,0.5,0,0.9-0.3,1.3c-0.5,0.6-0.7,1.3-0.5,2
							c0,0.1,0,0.2,0.1,0.3c0.3,0.8,0.5,1.7,0.8,2.5c0.1,0.2,0.2,0.4,0.4,0.6c0.8,0.8,1.8,1.3,2.9,1.5c0.3,0.1,0.5,0.1,0.8,0
							c1.1-0.2,1.9-0.8,2.7-1.5c0.7-0.7,1-1.4,0.8-2.4c0-0.1,0-0.2,0-0.2c-0.1-0.6-0.2-1.2-0.5-1.8c-0.2-0.5-0.6-0.9-1.2-1
							c-0.2,0-0.3-0.1-0.5-0.1c-0.8-0.2-1.7-0.4-2.6-0.2c-1.1,0.1-1.2,0.4-1.4,1.3c-0.2,1,0.1,1.9,0.6,2.8c0.4,0.8,1,1.1,2,1
							c0.4-0.1,0.8-0.2,1.1-0.6c0.3-0.4,0.2-1.2-0.1-1.6C143.7,149.3,143.1,149.1,142.6,149.4z"/>
						<path class="st38" d="M86.2,152.1c1.5,0.1,2.9,0.2,4.2,0.6c0.9,0.3,1.7,0.7,2.5,1.2c0.6,0.4,0.8,1,0.9,1.7
							c0.1,0.8-0.1,1.5-0.4,2.2c-0.1,0.1-0.1,0.3-0.2,0.5c-0.1,0.2-0.2,0.4-0.4,0.6c-0.4,0.5-0.8,1-1.2,1.5c-0.6,0.6-1.3,1.1-2,1.5
							c-0.5,0.3-1.1,0.5-1.7,0.6c-0.5,0.1-1,0.1-1.5,0c-0.2,0-0.4-0.1-0.5-0.1c-0.6-0.1-1.2-0.4-1.7-0.8c-0.3-0.3-0.7-0.5-1-0.8
							c-0.2-0.2-0.4-0.4-0.5-0.6c-0.5-0.9-1-1.9-1.3-2.9c-0.3-1.3,0-2.5,0.9-3.5c0.8-0.9,1.8-1.3,2.9-1.5
							C85.6,152.2,86,152.2,86.2,152.1z M92.4,157.8c0,0,0.1-0.1,0.1-0.1c0.3-0.9,0.4-1.8,0-2.7c-0.2-0.5-0.5-0.9-1.1-1.1
							c-0.3-0.1-0.7-0.3-1-0.4c-1.6-0.4-3.2-0.5-4.8-0.4c-0.9,0-1.6,0.4-2.2,0.9c-0.6,0.5-0.9,1.2-1,2.1c0,0.9,0.2,1.7,0.4,2.6
							c0.2,0.6,0.5,1.2,0.9,1.8c0.2,0.2,0.4,0.4,0.6,0.5c0.9,0.6,1.9,0.8,2.9,0.6c1-0.1,2-0.5,2.8-1.2c0.2-0.2,0.3-0.3,0.4-0.5
							c0.2-0.5,0.3-1.1,0.1-1.6c-0.2-0.8-0.5-1.6-0.9-2.4c-0.2-0.3-0.3-0.6-0.6-0.8c-0.2-0.2-0.4-0.3-0.7-0.3c-0.8,0-1.6,0-2.3,0.5
							c-0.4,0.3-0.8,0.6-1.2,0.9c-0.2,0.2-0.3,0.4-0.4,0.7c-0.2,0.7-0.1,1.4,0.3,2c0.2,0.3,0.5,0.6,0.8,0.8c0.1,0.1,0.2,0.1,0.4,0.1
							c0.5,0,1,0,1.4-0.2c0.5-0.2,0.6-0.5,0.6-0.9c-0.1-0.4-0.1-0.8-0.2-1.2c0-0.2-0.1-0.4-0.2-0.5c-0.1-0.2-0.2-0.2-0.4-0.1
							c-0.2,0.1-0.3,0.2-0.4,0.4c-0.1,0.3-0.2,0.6-0.4,0.8c-0.1,0.2-0.2,0.4-0.3,0.6c-0.1,0.2-0.2,0.2-0.4,0.2
							c-0.1,0-0.2-0.2-0.2-0.4c0-0.1,0-0.3,0-0.4c0-0.2,0.1-0.3,0.1-0.5c0-0.4,0.1-0.8,0.4-1.1c0.4-0.7,1.4-1.1,2.2-0.3
							c0.6,0.5,0.9,1.2,1.1,2c0.1,0.6,0,1.1-0.4,1.5c-0.2,0.3-0.5,0.4-0.8,0.6c-0.5,0.3-1.1,0.4-1.7,0.5c-0.6,0.1-1.1-0.1-1.5-0.4
							c-0.7-0.6-1.1-1.4-1.2-2.3c-0.1-0.7,0.2-1.4,0.5-2.1c0.8-1.3,1.9-2.1,3.5-2.1c0.9,0,1.8,0.3,2.6,0.7c0.9,0.5,1.5,1.2,1.7,2.2
							C92.2,157,92.3,157.4,92.4,157.8z"/>
						<path class="st38" d="M114.6,153.3c-0.1,0-0.3,0-0.4,0c-0.7,0-1.2-0.3-1.5-0.9c-0.4-0.8-0.7-1.6-0.4-2.5c0-0.1,0-0.3-0.1-0.4
							c-0.1-0.4-0.3-0.7-0.4-1.1c-0.2-0.6-0.1-1.1,0.2-1.7c0.6-1,1.3-1.8,2.3-2.4c1-0.6,2-0.6,3,0.1c0.2,0.1,0.4,0.3,0.5,0.4
							c0.6,0.5,1.1,1,1.7,1.6c0.7,0.7,1.1,1.5,1.4,2.5c0.4,2-0.1,3.6-1.5,5.1c-0.5,0.5-1.2,1-1.9,1.1c-0.5,0.1-1.1,0-1.6,0
							c-0.4,0-0.7-0.3-0.8-0.7c-0.1-0.2-0.2-0.5-0.3-0.7C114.7,153.6,114.6,153.5,114.6,153.3z M112.8,148.7
							C112.8,148.7,112.8,148.7,112.8,148.7c0.2-0.1,0.2-0.2,0.3-0.3c0.3-0.5,0.5-1,0.9-1.5c0.6-0.9,1.7-1.2,2.7-0.8
							c0.5,0.2,0.8,0.4,1.2,0.7c0.5,0.4,0.8,0.9,0.8,1.5c0,0.7,0,1.4-0.1,2c0,0.3-0.1,0.7-0.2,1c-0.2,0.5-0.5,0.7-1,0.8
							c-0.5,0.1-1,0-1.5-0.1c-0.4-0.1-0.6-0.3-0.8-0.7c-0.4-1-0.2-2,0.2-3c0.1-0.3,0.4-0.4,0.7-0.4c0.5,0,0.9,0.3,1.2,0.6
							c0.2,0.2,0.3,0.5,0.2,0.8c-0.2,0.5-0.5,0.9-0.8,1.3c-0.1,0.1-0.2,0.2-0.4,0.1c-0.2-0.1-0.2-0.2-0.1-0.4c0.1-0.3,0.2-0.7,0.3-1
							c0-0.1,0.1-0.2,0-0.3c0-0.1-0.1-0.2-0.2-0.2c-0.1,0-0.2,0-0.3,0.1c-0.1,0.1-0.2,0.2-0.2,0.3c-0.3,0.6-0.3,1.2,0,1.9
							c0.1,0.2,0.3,0.4,0.5,0.6c0.2,0.2,0.5,0.2,0.8,0.1c0.4-0.2,0.6-0.5,0.7-0.9c0.1-0.3,0.1-0.7,0.1-1c0-0.6,0-1.3-0.2-1.9
							c-0.1-0.4-0.4-0.8-0.8-0.9c-0.2-0.1-0.4-0.1-0.6-0.2c-0.4-0.1-0.7,0-1,0.2c-0.9,0.8-1.7,1.7-2.1,2.9c-0.3,0.8-0.1,1.5,0.5,2.1
							c0.3,0.3,0.5,0.4,1,0.4c0.6,0,0.9,0.2,1.2,0.8c0.1,0.2,0.1,0.4,0.2,0.5c0.2,0.5,0.8,0.9,1.2,0.8c0.7-0.1,1.3-0.3,1.8-0.8
							c0.4-0.4,0.8-0.9,0.9-1.5c0.1-0.3,0.2-0.6,0.3-1c0.1-0.5,0.1-1,0-1.5c-0.5-2.1-2-3.5-3.7-4.5c0,0,0,0,0,0
							c-0.4-0.2-0.7-0.2-1.1-0.1c-0.8,0.2-1.5,0.6-2,1.2C112.8,146.9,112.7,147.8,112.8,148.7z"/>
					</g>
				</g>
			</g>
		</g>
	</g>
	<g>
		<g>
			<path class="st102" d="M351,108.1c0-0.6-0.1-1.1-0.1-1.7c-0.1-1.2-0.3-2.4-0.4-3.6c-0.1-0.9-0.1-1.7-0.2-2.6
				c-0.3-2.3-0.6-4.6-0.8-7c-0.2-2.7-0.4-5.3-0.6-8c-0.1-2.5-0.1-5-0.2-7.4c0-2.1,0-4.2,0-6.2c0-1.4-0.1-2.8-0.5-4.2
				c-0.4-1.5-1.3-2.3-2.9-2.5c-1.7-0.2-3.4-0.1-5.1,0.2c-2.5,0.4-5,1.1-7.4,2c-3.6,1.4-7.2,2.9-10.8,4.3c-0.4,0.2-0.7,0.2-1.1,0
				c-6.2-2.1-12.6-3.3-19.2-3.4c-2.7,0-5.3,0-8,0.3c-2.7,0.3-5.4,0.7-8.1,1.2c-4.8,1-9.5,2.5-14,4.7c-0.3,0.2-0.6,0.1-0.9,0
				c-1.9-0.9-3.8-1.9-5.7-2.8c-1.9-0.9-4-1.7-6-2.3c-1.6-0.4-3.2-0.7-4.9-0.4c-2.2,0.4-3.8,1.8-4.3,3.9c-0.1,0.4-0.2,0.9-0.2,1.3
				c0,1.2-0.1,2.4-0.1,3.6c0,2.4,0,4.7-0.2,7.1c-0.1,2.2-0.4,4.4-0.7,6.6c-0.1,1.2-0.3,2.3-0.5,3.5c-0.5,2.5-1.1,4.9-1.6,7.4
				c-0.5,2.4-0.9,4.9-1.1,7.3c-0.1,1-0.1,2.1-0.1,3.1c0,1.2,0,2.3,0.1,3.5c0.1,1.7,0.4,3.3,0.6,5c0.6,4.4,1.7,8.6,3.5,12.6
				c1.7,3.8,3.9,7.3,7,10.3c3.1,3,6.8,5.2,10.8,6.9c3.7,1.5,7.5,2.5,11.4,3.3c0.6,0.1,1.2,0.2,1.9,0.4c-0.2,0.2-0.3,0.3-0.4,0.4
				c-0.7,0.6-1.4,1.2-2,1.8c-4,4-7.3,8.5-9.9,13.5c-1.7,3.3-3.2,6.8-4.2,10.4c-0.2-1.1-0.4-2.1-0.6-3.2c-0.3-1.6-0.7-3.2-1.2-4.7
				c-0.4-1.2-1-2.2-1.8-3.2c-0.5-0.6-1-1-1.7-1.2c-0.8-0.2-1.5,0-2,0.7c-0.3,0.4-0.5,0.9-0.6,1.4c-0.1,0.7-0.1,1.3-0.2,2
				c0,1.5,0.2,3,0.5,4.5c0.3,2.1,0.9,4.2,1.5,6.3c0.8,2.9,1.9,5.7,3.1,8.5c0.9,2.1,2.1,4.1,3.6,5.9c0,0,0,0,0.1,0.1
				c1.7,3.2,4.4,5.4,8.2,6.5c2.2,0.7,4.5,1.1,6.8,1.3c1.9,0.2,3.8,0.4,5.6,0.6c0.3,0,0.5,0,0.8,0c0-0.1,0-0.1,0-0.1
				c-0.2-0.2-0.4-0.3-0.6-0.5c-1.6-1.3-2.7-2.9-3.5-4.7c-1.1-2.4-1.6-4.9-1.9-7.4c0-0.1,0-0.3,0-0.4c0.1-0.1,0.2-0.3,0.3-0.3
				c0.1,0,0.3,0.1,0.4,0.2c0.1,0.1,0.1,0.2,0.2,0.4c0.1,0.5,0.2,1,0.3,1.5c0.3,1.8,0.8,3.5,1.6,5.1c0.7,1.5,1.6,2.8,2.8,3.9
				c1.3,1.2,2.7,1.8,4.5,1.6c1.6-0.2,2.8-0.8,3.4-2.5c0.7-1.9,0.8-3.8,0.7-5.7c-0.1-2.5-0.6-5-1.3-7.4c-1.3-4.5-2.9-8.8-4.6-13.1
				c-0.4-1-0.8-2.1-1.2-3.1c-0.1-0.2-0.1-0.5-0.1-0.8c0-0.5,0.5-0.7,0.9-0.5c0.2,0.1,0.5,0.3,0.6,0.5c0.4,0.6,0.8,1.3,1.1,1.9
				c0.6,1.2,1.1,2.5,1.6,3.8c1.6,4.2,3.2,8.5,4.2,12.9c0.7,2.9,1.1,5.9,0.8,8.9c-0.2,1.6-0.6,3.1-1.4,4.5c-0.5,0.8-1.1,1.4-1.9,1.8
				c-0.1,0-0.1,0.1-0.3,0.2c2.8,0.1,5.6,0.2,8.4,0.2c-0.1-0.1-0.1-0.2-0.1-0.2c-0.8-0.8-1.3-1.8-1.6-2.9c-0.4-1.6-0.5-3.2-0.5-4.8
				c0-0.8,0.1-1.7,0.2-2.5c0.2-2.5,0.5-5,1-7.4c0.6-3.4,1.4-6.8,2.2-10.2c0.5-2,1.2-4,1.8-6c0.2-0.5,0.5-1,0.8-1.4
				c0.2-0.2,0.5-0.4,0.8-0.5c0.5-0.2,1,0.2,0.9,0.8c0,0.1-0.1,0.2-0.1,0.3c-0.3,0.9-0.6,1.8-0.8,2.6c-1.4,4.7-2.5,9.4-3.4,14.2
				c-0.5,2.8-0.9,5.7-1.1,8.5c-0.1,1.3-0.2,2.7,0,4c0.1,1,0.2,2,0.6,2.9c0.4,1.1,1.2,1.8,2.3,2.1c2,0.5,3.8,0.2,5.3-1.2
				c0.4-0.4,0.9-0.9,1.2-1.3c0.9-1.1,1.4-2.3,2-3.5c0.7-1.7,1.3-3.3,1.7-5.1c0.1-0.3,0.1-0.5,0.2-0.8c0.1-0.3,0.4-0.4,0.6-0.3
				c0.2,0.1,0.4,0.3,0.4,0.6c0,0.1,0,0.1,0,0.2c-0.2,0.9-0.4,1.7-0.6,2.6c-0.9,3.3-2.1,6.5-4.8,9.1c0.3,0,0.4,0,0.6,0
				c2.9-0.1,5.8-0.2,8.6-0.7c3.3-0.6,6.4-1.6,9.2-3.4c1.3-0.8,2.7-1.6,3.8-2.6c5.9-5.4,3.3-16,3.1-17.5c-0.8-4.7-2.3-9.1-4.5-13.4
				c-1.1-2.2-2.4-4.2-3.9-6.2c-2.5-3.4-5.2-6.5-8.3-9.4c-0.1-0.1-0.2-0.3-0.4-0.4c0.3-0.1,0.4-0.1,0.6-0.2c1.7-0.5,3.5-1,5.2-1.6
				c4.2-1.4,8.1-3.3,11.7-5.9c4.2-3,7.8-6.6,10.3-11.2c3.2-5.8,4.8-12,5.2-18.6C351.3,113.2,351,110.6,351,108.1z"/>
			<path class="st57" d="M296.8,119.4c0.3-0.5,0.6-1.1,0.9-1.6c0.4-0.6,0.8-1.2,1.4-1.6c1.5-1.2,3.2-0.5,3.6,1.4
				c0.1,0.7,0.1,1.4-0.1,2c-0.1,0.4-0.2,0.8-0.4,1.2c-0.8,1.9-2,3.7-3.5,5.1c-1,0.9-1.7,0.9-2.7,0c-1.6-1.4-3-2.9-4-4.8
				c-0.5-0.9-0.9-1.8-0.9-2.9c0-0.3,0-0.5,0.1-0.8c0.3-1.1,1.3-1.6,2.4-1.3c1,0.3,1.8,0.9,2.4,1.8
				C296.4,118.4,296.6,118.9,296.8,119.4z"/>
			<path class="st93" d="M297.8,134.2c-0.1,0.2-0.2,0.3-0.3,0.4c-0.5,0.8-1.3,1.1-2.2,1.1c-0.5,0-1-0.2-1.4-0.3
				c-0.3-0.1-0.4-0.3-0.4-0.5c0.1-0.2,0.3-0.4,0.6-0.3c0.3,0,0.6,0.1,0.9,0.2c0.9,0.1,1.5-0.2,1.7-1.1c0.1-0.4,0.1-0.8,0.1-1.2
				c0-1.2,0.1-2.4,0.1-3.6c0-0.2,0.1-0.4,0.1-0.6c0.1-0.2,0.2-0.4,0.4-0.4c0.3,0,0.4,0.2,0.5,0.4c0.1,0.6,0.3,1.2,0.4,1.8
				c0.1,1,0.2,2,0.4,2.9c0.1,0.4,0.2,0.8,0.4,1.2c0.3,0.8,1.1,1,1.8,0.5c0.4-0.2,0.7-0.5,1.1-0.8c0.2-0.1,0.4-0.2,0.6-0.1
				c0.2,0.2,0.3,0.4,0.1,0.6c-0.4,0.6-0.9,1.1-1.6,1.4c-0.5,0.2-1.1,0.3-1.6,0.1c-0.6-0.2-1-0.6-1.3-1.1
				C298,134.5,297.9,134.4,297.8,134.2z"/>
			<g>
				<g>
					<circle class="st28" cx="281.5" cy="106.3" r="6.4"/>
					<path class="st26" d="M285,103.8c-0.2,1.1-1.2,1.8-2.3,1.8c-1.3,0-2.4-1.1-2.4-2.4c0-0.4,0.1-0.8,0.3-1.2
						c-2,0.4-3.4,2.1-3.4,4.2c0,2.4,1.9,4.3,4.3,4.3c2.4,0,4.3-1.9,4.3-4.3C285.8,105.3,285.5,104.5,285,103.8z M281,108.6
						c-0.8,0-1.4-0.6-1.4-1.4c0-0.8,0.6-1.4,1.4-1.4c0.8,0,1.4,0.6,1.4,1.4C282.4,108,281.8,108.6,281,108.6z"/>
				</g>
				<g>
					<circle class="st28" cx="314.6" cy="106.3" r="6.4"/>
					<path class="st26" d="M318.1,103.8c-0.2,1.1-1.2,1.8-2.3,1.8c-1.3,0-2.4-1.1-2.4-2.4c0-0.4,0.1-0.8,0.3-1.2
						c-2,0.4-3.4,2.1-3.4,4.2c0,2.4,1.9,4.3,4.3,4.3c2.4,0,4.3-1.9,4.3-4.3C318.9,105.3,318.6,104.5,318.1,103.8z M314.1,108.6
						c-0.8,0-1.4-0.6-1.4-1.4c0-0.8,0.6-1.4,1.4-1.4c0.8,0,1.4,0.6,1.4,1.4C315.5,108,314.9,108.6,314.1,108.6z"/>
				</g>
			</g>
		</g>
		<path class="st31" d="M319.9,168.7c0,0.1,0.1,0.2,0.1,0.3c1.2,2.9,2.7,5.5,4.4,8.1c0.6,0.8,1.3,1.6,2.1,2.3
			c0.3,0.3,0.6,0.6,0.8,0.9c0.2,0.3,0.2,0.6,0,0.8c0,0-0.1,0.1-0.1,0.2c-0.2,0.4-0.6,0.4-0.9,0.2c-0.2-0.1-0.4-0.3-0.5-0.4
			c-0.1,0-0.1-0.1-0.2-0.1c0.1,0.2,0.3,0.4,0.4,0.6c0.1,0.1,0.2,0.3,0.2,0.4c0.1,0.2,0.1,0.5-0.1,0.6c-0.2,0.2-0.4,0.2-0.7,0.1
			c-0.2-0.1-0.3-0.2-0.4-0.3c-0.3-0.3-0.6-0.6-1-1c-0.1,0.1-0.3,0.2-0.4,0.3c0.2,0.4,0.5,0.7,0.7,1.1c0.1,0.2,0.2,0.3,0.3,0.5
			c0.1,0.3,0,0.6-0.3,0.8c-0.3,0.2-0.5,0.2-0.8,0c-0.2-0.1-0.3-0.3-0.5-0.5c-0.3-0.3-0.5-0.6-0.8-1c-0.4,0.2-0.7,0.5-1.1,0.7
			c0.2,0.4,0.4,0.8,0.6,1.3c0.1,0.1,0.1,0.3,0.1,0.4c0,0.5-0.5,0.8-0.9,0.6c-0.1-0.1-0.3-0.2-0.3-0.3c-0.3-0.4-0.6-0.7-1-1.1
			c-0.4,0.2-0.9,0.4-1.4,0.6c0.2,0.4,0.4,0.7,0.7,1.1c0.1,0.1,0.2,0.3,0.2,0.4c0.1,0.3,0,0.6-0.2,0.8c-0.2,0.2-0.4,0.2-0.7,0
			c-0.1,0-0.1-0.1-0.2-0.1c-0.7-0.8-1.4-1.6-1.8-2.6c0-0.1-0.1-0.2-0.2-0.3c-0.3-0.4-0.7-0.8-0.9-1.2c-2.6-3.7-4.6-7.7-6-12
			c-0.2-0.8-0.4-1.5-0.6-2.3c0-0.1,0-0.1-0.1-0.2c-0.7,0.1-1.4,0.2-2,0.3c-1.7,0.2-3.3,0.5-5,0.6c-1.6,0.2-3.2,0.3-4.8,0.4
			c-2.2,0.2-4.5,0.2-6.7,0.1c-1.8-0.1-3.5-0.2-5.3-0.5c-2.9-0.4-5.7-1.1-8.4-2.2c-0.7-0.3-1.3-0.6-1.9-1.1c-0.5-0.4-0.9-0.8-1.3-1.3
			c-0.1-0.1-0.1-0.2-0.2-0.2c-0.8-0.8-1.2-1.8-1.4-3c-0.3-2-0.2-4.1,0.1-6.1c0.1-0.6,0.3-1.2,0.7-1.7c0.4-0.6,0.9-1.1,1.6-1.3
			c0.8-0.3,1.6-0.4,2.4-0.4c1.2,0,2.3,0.3,3.4,0.5c1.7,0.3,3.4,0.6,5.2,0.9c1.5,0.2,3,0.3,4.4,0.5c2.5,0.3,5.1,0.3,7.6,0.3
			c1.9,0,3.7-0.1,5.5-0.4c1.8-0.2,3.7-0.4,5.5-0.7c2.7-0.4,5.3-0.9,7.9-1.7c1-0.3,1.9-0.7,2.9-1c1-0.3,2.1-0.3,3.1,0
			c0.9,0.3,1.6,0.9,2.1,1.8c0.5,0.9,0.8,1.9,1,2.9c0.1,0.5,0.2,1,0.2,1.4c0,0.2,0.1,0.5,0.2,0.7c0.9,1.9,2.2,3.4,3.9,4.7
			c0.6,0.5,1.2,0.9,1.9,1.3c1.5,0.9,2.9,1.8,4.4,2.7c0.3,0.2,0.6,0.4,0.9,0.6c0.2,0.2,0.4,0.4,0.5,0.7c0,0.1,0.1,0.2,0.3,0.3
			c0.3,0.1,0.5,0.3,0.8,0.5c0.1,0.1,0.3,0.2,0.4,0.3c0.2,0.2,0.2,0.5,0.1,0.7c-0.1,0.3-0.4,0.4-0.7,0.3c-0.2,0-0.5-0.1-0.7-0.2
			c-0.1,0-0.2-0.1-0.4-0.1c0.1,0.1,0.2,0.2,0.2,0.3c0.3,0.3,0.5,0.5,0.8,0.8c0.1,0.1,0.2,0.2,0.2,0.3c0.1,0.3,0.1,0.6-0.1,0.8
			c-0.2,0.2-0.5,0.3-0.8,0.1c-0.4-0.2-0.7-0.5-1.1-0.7c-0.1-0.1-0.2-0.1-0.3-0.2c-0.1,0.2-0.3,0.4-0.4,0.6c0.3,0.4,0.7,0.8,1,1.3
			c0.1,0.2,0.3,0.3,0.4,0.5c0.2,0.3,0.2,0.7-0.1,0.9c-0.2,0.2-0.6,0.3-0.9,0c-0.2-0.1-0.3-0.3-0.5-0.5c-0.3-0.3-0.6-0.6-0.9-0.9
			c-0.2,0.3-0.4,0.5-0.6,0.8c0.1,0.1,0.2,0.3,0.3,0.4c0.3,0.4,0.6,0.9,0.9,1.3c0.1,0.1,0.1,0.2,0.2,0.3c0.1,0.3,0,0.5-0.2,0.7
			c-0.2,0.2-0.5,0.2-0.7,0.1c-0.1-0.1-0.2-0.1-0.3-0.2c-0.3-0.3-0.6-0.6-0.9-1c-0.1-0.1-0.2-0.2-0.2-0.3c-0.4,0.4-0.7,0.7-1.1,1.1
			c0.2,0.3,0.4,0.7,0.6,1.1c0.1,0.2,0.2,0.3,0.2,0.5c0.1,0.3,0,0.6-0.3,0.8c-0.2,0.2-0.6,0.2-0.8,0c-0.1-0.1-0.2-0.3-0.4-0.4
			c-0.2-0.3-0.4-0.6-0.7-1c-0.2,0.1-0.4,0.3-0.6,0.4c-0.2,0.1-0.4,0.2-0.6,0.4c0,0.1,0.1,0.2,0.1,0.3c0.2,0.3,0.4,0.6,0.5,0.9
			c0.2,0.3,0.1,0.6-0.2,0.8c-0.3,0.2-0.6,0.1-0.8-0.1c-0.1-0.1-0.2-0.2-0.2-0.3c-0.4-0.8-1-1.4-1.6-2c-1.5-1.7-3.1-3.4-4.5-5.1
			c-0.8-0.9-1.5-1.9-2.2-2.9C320.1,168.9,320,168.8,319.9,168.7C319.9,168.7,319.9,168.7,319.9,168.7z"/>
		<g>
			<path class="st2" d="M314.9,157.3C314.9,157.2,314.9,157.2,314.9,157.3c0.2-0.3,0.4-0.6,0.7-0.8c0.3-0.3,0.6-0.5,0.9-0.7
				c0.6-0.4,1.2-0.6,1.9-0.8c0.2,0,0.3,0,0.5-0.1c0.2,0,0.3,0,0.5,0c0.9,0.1,1.7,0.4,2.4,1c0.3,0.3,0.5,0.7,0.7,1.1
				c0.1,0.3,0.2,0.7,0.3,1.1c0,0.3,0,0.6,0,0.9c0,0.4-0.1,0.7-0.2,1.1c-0.1,0.5-0.3,0.9-0.6,1.4c-0.4,0.6-0.8,1.2-1.2,1.8
				c-0.6,0.7-1.1,1.4-1.7,2.1c-0.3,0.3-0.6,0.7-1,1c-0.5,0.6-1.1,1.1-1.6,1.6c-0.3,0.3-0.6,0.5-0.9,0.8c-0.1,0.1-0.3,0.3-0.5,0.4
				c0,0,0,0,0,0c0,0-0.1,0-0.1,0c-0.1,0-0.1-0.1-0.2-0.1c-0.5-0.4-1.1-0.9-1.6-1.3c-0.5-0.4-0.9-0.9-1.4-1.3c-0.7-0.7-1.3-1.4-2-2.2
				c-0.3-0.4-0.6-0.7-0.9-1.1c-0.4-0.6-0.8-1.2-1.2-1.8c-0.2-0.4-0.4-0.9-0.5-1.4c-0.1-0.5-0.2-0.9-0.1-1.4c0-0.3,0.1-0.6,0.2-0.9
				c0.2-0.6,0.5-1.2,1-1.6c0.4-0.4,1-0.7,1.6-0.8c0.2-0.1,0.4-0.1,0.7-0.1c0.2,0,0.4,0,0.7,0c0.4,0,0.7,0.1,1.1,0.2
				c0.3,0.1,0.6,0.3,1,0.4c0.3,0.1,0.5,0.3,0.8,0.5c0.2,0.2,0.4,0.4,0.6,0.6C314.7,157,314.8,157.1,314.9,157.3
				C314.9,157.2,314.9,157.2,314.9,157.3z"/>
		</g>
	</g>
</g>
</svg>
