<?xml version="1.0" encoding="utf-8"?>
<!-- Generator: Adobe Illustrator 16.0.0, SVG Export Plug-In . SVG Version: 6.00 Build 0)  -->
<!DOCTYPE svg PUBLIC "-//W3C//DTD SVG 1.1//EN" "http://www.w3.org/Graphics/SVG/1.1/DTD/svg11.dtd">
<svg version="1.1" id="Calque_1" xmlns="http://www.w3.org/2000/svg" xmlns:xlink="http://www.w3.org/1999/xlink" x="0px" y="0px"
	 width="432px" height="432px" viewBox="0 0 432 432" enable-background="new 0 0 432 432" xml:space="preserve">
<g>
	<g>
		<path fill="#432918" d="M239.982,96.335c-3.681,0.387-6.512,3.08-8.025,6.318c-0.746,1.596,1.627,2.996,2.378,1.39
			c2.058-4.402,8.669-7.697,11.364-1.802c0.736,1.61,3.11,0.212,2.378-1.39C246.664,97.757,243.356,95.98,239.982,96.335z"/>
		<path fill="#432918" d="M221.369,105.746c-2.45-3.29-6.599-5.485-10.729-4.097c-3.733,1.255-5.831,5.062-5.219,8.85
			c0.282,1.745,2.937,1.004,2.656-0.732c-0.416-2.571,1.455-5.092,3.968-5.658c2.696-0.608,5.376,0.921,6.945,3.028
			C220.037,108.542,222.429,107.171,221.369,105.746z"/>
		<path fill="#432918" d="M235.627,119.316c0.255,1.477,0.239,2.963-0.098,4.426c-0.334,1.45-0.514,2.706-1.735,0.913
			c-0.69-1.014-1.204-2.148-1.61-3.325c1.508-2.143,2.63-5.045,2.264-7.674c-0.394-2.827-3.282-2.337-5.388-1.829
			c-1.758,0.424-5.586,1.397-5.897,3.594c-0.174,1.231,0.693,2.028,1.547,2.765c1.267,1.092,2.565,2.15,3.848,3.226
			c0.119,0.1,0.246,0.148,0.372,0.203c0.208,2.016,0.045,4.097-1.137,5.298c-2.741,2.784-4.385-4.149-4.666-5.993
			c-0.266-1.747-2.92-1.005-2.656,0.732c0.514,3.376,2.854,10.577,7.699,8.46c1.753-0.766,2.711-2.331,3.165-4.18
			c0.785,1.301,1.857,2.537,3.402,2.602c4.182,0.175,3.995-7.345,3.545-9.948C237.982,116.842,235.327,117.581,235.627,119.316z"/>
		<path fill="#432918" d="M276.759,107.797c-2.728,0.369-5.402,0.902-8.034,1.563c-0.176-1.683-0.338-3.366-0.501-5.05
			c2.365-1.331,4.775-2.593,7.283-3.705c1.617-0.719,0.218-3.092-1.39-2.379c-2.114,0.938-4.173,1.964-6.187,3.059
			c-0.972-10.486-1.728-20.996-2.446-31.513c0.02-0.047,0.05-0.085,0.066-0.135c0.566-1.731,0.292-1.755-0.361-3.806
			c-0.026-0.084-0.095-0.125-0.133-0.198c-0.052-0.097-0.111-0.187-0.182-0.271c-0.093-0.107-0.181-0.203-0.297-0.275
			c-0.511-0.369-1.204-0.442-1.689,0.136c-0.061,0.072-0.109,0.161-0.167,0.237c-0.013,0.019-0.035,0.022-0.047,0.042
			c-0.47,0.732-9.11,7.872-10.66,8.417c-2.895,1.019-9.096-1.869-12.19-2.239c-3.527-0.423-7.07-0.536-10.616-0.279
			c-7.021,0.507-13.95,2.393-20.188,5.675c-3.329,1.751-7.19,5.475-11.101,5.914c-4.56,0.514-10.832-3.224-15.068-4.797
			c-0.814-0.303-1.793,0.485-1.743,1.328c0.873,14.611,7.514,27.113,12.24,40.705c0.015,0.043,0.027,0.086,0.042,0.128
			c-4.459,0.813-8.795,2.355-12.922,4.677c-1.545,0.869-0.158,3.249,1.39,2.378c3.951-2.223,8.107-3.704,12.386-4.448
			c0.463,1.405,0.924,2.811,1.356,4.225c-5.346,2.536-10.273,5.834-14.711,9.899c-1.31,1.2,0.642,3.144,1.948,1.948
			c4.107-3.762,8.634-6.818,13.547-9.188c0.699,2.393,1.37,4.795,2.007,7.207c-2.999,2.886-5.685,6.098-8.037,9.616
			c-0.987,1.479,1.397,2.858,2.378,1.391c1.912-2.861,4.106-5.455,6.476-7.869c2.494,9.762,4.672,19.619,7.294,29.324
			c0.461,1.709,3.12,0.983,2.656-0.732c-2.756-10.199-5.054-20.53-7.708-30.761c2.597-2.356,5.388-4.507,8.438-6.355
			c1.514-0.917,0.131-3.3-1.391-2.378c-2.795,1.694-5.411,3.602-7.844,5.704c-0.563-2.103-1.153-4.198-1.761-6.289
			c1.828-0.773,3.703-1.463,5.633-2.052c1.69-0.517,0.969-3.176-0.732-2.656c-1.943,0.593-3.833,1.29-5.682,2.064
			c-0.094-0.31-0.18-0.622-0.275-0.932c-0.257-0.835-0.542-1.677-0.843-2.521c3.622-0.355,7.315-0.21,11.044,0.504
			c1.732,0.333,2.474-2.321,0.732-2.655c-4.313-0.827-8.585-0.958-12.766-0.476c-4.262-10.815-10.969-22.334-11.466-33.488
			c-0.338-7.586,5.414-1.981,10.207-1.161c7.015,1.201,6.7-0.465,12.677-4.17c13.801-8.554,30.188-8.653,45.185-3.536
			c0.661,0.226,1.565-0.26,1.694-0.962c0.667-3.638,4.494-4.942,7.604-6.903c0.194,0.287,0.479,0.513,0.87,0.666
			c0.741,10.812,1.534,21.617,2.557,32.398c-4.759,2.812-9.261,6.021-13.444,9.723c-1.33,1.177,0.624,3.119,1.947,1.947
			c3.691-3.266,7.639-6.12,11.791-8.657c0.141,1.416,0.28,2.833,0.43,4.249c-4.786,1.396-9.417,3.267-13.896,5.632
			c-1.568,0.827-0.178,3.206,1.39,2.378c4.145-2.188,8.413-3.917,12.814-5.233c0.272,2.467,0.561,4.933,0.867,7.396
			c-5.448-0.077-10.844,0.548-16.222,1.892c-1.719,0.43-0.99,3.087,0.732,2.656c5.259-1.313,10.524-1.892,15.84-1.788
			c0.496,3.82,1.02,7.639,1.615,11.45c0.272,1.746,2.927,1.005,2.656-0.732c-0.551-3.529-1.04-7.064-1.503-10.602
			c1.351,0.087,2.703,0.202,4.062,0.377c1.753,0.227,1.736-2.53,0-2.754c-1.477-0.19-2.947-0.312-4.414-0.397
			c-0.344-2.745-0.667-5.492-0.967-8.241c2.766-0.712,5.582-1.273,8.461-1.663C279.24,110.216,278.495,107.562,276.759,107.797z"/>
		<path fill="#432918" d="M194.532,88.264c-1.835-1.107-3.837-1.879-5.947-2.262c-1.008-0.184-1.987,0.612-1.694,1.693
			c0.479,1.768,1.136,3.467,1.944,5.11c0.782,1.591,3.158,0.196,2.378-1.39c-0.339-0.689-0.636-1.39-0.904-2.102
			c0.978,0.344,1.92,0.776,2.833,1.327C194.663,91.56,196.049,89.179,194.532,88.264z"/>
		<path fill="#432918" d="M261.473,81.72c0.521-2.474,0.728-4.962,0.576-7.487c-0.071-1.176-1.462-1.835-2.351-0.974
			c-1.739,1.686-3.378,3.459-4.923,5.324c-1.122,1.355,0.816,3.314,1.948,1.947c0.825-0.996,1.682-1.962,2.562-2.906
			c-0.078,1.125-0.231,2.244-0.468,3.364C258.452,82.717,261.106,83.456,261.473,81.72z"/>
	</g>
	<g>
		<path fill="#E16379" d="M317.313,163.572c3.348,0.897,6.192,1.346,8.52,1.346c3.172,0,5.388-0.831,6.62-2.492
			c0.803-1.082,0.566-2.58-0.618-3.91c-1.03-1.157-2.662-2.04-4.329-1.967c0.728-1.461,0.617-3.34-0.015-4.758
			c-0.725-1.624-1.992-2.463-3.308-2.166c-3.505,0.764-5.952,5.248-7.271,13.328C316.866,163.232,317.04,163.499,317.313,163.572z"
			/>
		<path fill="#A3195B" d="M233.363,181.669c0.711,0,1.493-0.267,2.26-0.798c1.275-0.883,2.343-2.432,2.48-4.057
			c1.36,0.899,3.237,1.014,4.721,0.564c1.701-0.523,2.681-1.681,2.556-3.021c-0.333-3.572-4.487-6.546-12.348-8.838
			c-0.27-0.079-0.559,0.061-0.665,0.323c-3.062,7.596-3.298,12.698-0.699,15.168C232.133,181.452,232.719,181.669,233.363,181.669z"
			/>
		<path fill="#A4205E" d="M188.763,245.98c0.165,0.032,0.327,0.049,0.488,0.049c1.135,0,2.178-0.826,2.798-2.255
			c0.616-1.422,0.707-3.303-0.036-4.755c1.608,0.072,3.287-0.844,4.306-2.013c1.17-1.343,1.391-2.845,0.578-3.918
			c-2.167-2.855-7.265-3.187-15.152-0.985c-0.272,0.077-0.443,0.346-0.394,0.626C182.758,240.795,185.252,245.253,188.763,245.98z"
			/>
		<path fill="#E16379" d="M146.931,199.921c-0.243-0.138-0.556-0.064-0.719,0.17c-4.636,6.748-5.97,11.68-3.968,14.656
			c0.479,0.712,1.261,1.082,2.191,1.082c0.527,0,1.103-0.118,1.699-0.361c1.437-0.585,2.815-1.866,3.3-3.424
			c1.133,1.173,2.946,1.713,4.487,1.573c1.774-0.143,2.981-1.059,3.15-2.396C157.52,207.663,154.108,203.861,146.931,199.921z"/>
		<path fill="#D92C5A" d="M123.63,209.518c0.322,1.309,1.633,2.088,3.404,2.019c1.549-0.056,3.285-0.783,4.277-2.078
			c0.661,1.491,2.177,2.605,3.671,3.022c0.455,0.127,0.891,0.189,1.299,0.189c1.126,0,2.028-0.473,2.483-1.351
			c1.649-3.189-0.244-7.937-5.625-14.104c-0.185-0.213-0.505-0.251-0.734-0.088C125.727,201.864,122.774,206.034,123.63,209.518z"/>
		<path fill="#A3195B" d="M236.358,255.192c1.612,8.026,4.219,12.42,7.751,13.057c0.144,0.026,0.287,0.039,0.429,0.039
			c1.158,0,2.205-0.856,2.798-2.326c0.58-1.439,0.622-3.32-0.158-4.753c0.002,0,0.005,0,0.008,0
			c1.629-0.003,3.259-0.932,4.245-2.124c1.134-1.373,1.317-2.88,0.476-3.932c-2.236-2.797-7.342-2.995-15.17-0.596
			C236.466,254.642,236.303,254.914,236.358,255.192z"/>
		<path fill="#D60B52" d="M98.394,165.823c1.554,0.11,3.349-0.437,4.47-1.622c0.502,1.554,1.895,2.818,3.338,3.387
			c0.583,0.23,1.146,0.344,1.663,0.344c0.948,0,1.74-0.381,2.218-1.107c1.97-3,0.58-7.915-4.13-14.611
			c-0.164-0.234-0.476-0.299-0.721-0.163c-7.133,4.02-10.502,7.858-10.014,11.413C95.401,164.797,96.618,165.701,98.394,165.823z"/>
		<path fill="#E71D73" d="M208.856,336.588c0.642,0,1.349-0.201,2.063-0.608c1.348-0.767,2.55-2.214,2.83-3.821
			c1.275,1.016,3.132,1.295,4.653,0.979c1.741-0.37,2.818-1.436,2.812-2.782c-0.015-3.587-3.889-6.916-11.516-9.894
			c-0.264-0.105-0.562,0.009-0.691,0.262c-3.724,7.293-4.41,12.354-2.039,15.046C207.447,336.313,208.107,336.588,208.856,336.588z"
			/>
		<path fill="#D60B52" d="M339.518,175.788c-1.088-1.104-2.781-1.896-4.419-1.751c0.654-1.496,0.452-3.365-0.25-4.749
			c-0.806-1.589-2.124-2.35-3.411-2.004c-3.463,0.935-5.685,5.534-6.605,13.671c-0.031,0.281,0.155,0.54,0.432,0.6
			c2.928,0.633,5.461,0.949,7.597,0.949c3.701,0,6.203-0.949,7.468-2.842C341.077,178.543,340.766,177.058,339.518,175.788z"/>
		<path fill="#D60B52" d="M199.361,214.642c-1.243,0.514-1.809,1.919-1.476,3.667c0.291,1.525,1.273,3.13,2.705,3.914
			c-1.374,0.88-2.243,2.547-2.428,4.086c-0.212,1.769,0.449,3.133,1.726,3.563c0.521,0.174,1.065,0.263,1.633,0.263
			c3.136,0,6.977-2.673,11.447-7.971c0.183-0.215,0.172-0.536-0.024-0.738C207.246,215.545,202.675,213.258,199.361,214.642z"/>
		<path fill="#E16379" d="M171.075,249.569c0.872,1.38,2.535,2.262,4.075,2.455c1.766,0.224,3.133-0.43,3.569-1.704
			c1.165-3.391-1.401-7.809-7.624-13.13c-0.216-0.184-0.535-0.173-0.739,0.021c-5.913,5.663-8.224,10.219-6.871,13.541
			c0.415,1.016,1.426,1.586,2.734,1.586c0.295,0,0.606-0.028,0.927-0.088C168.671,251.971,170.282,250.996,171.075,249.569z"/>
		<path fill="#D60B52" d="M229.273,336.382c-1.264-0.469-2.634,0.181-3.575,1.693c-0.821,1.317-1.188,3.161-0.668,4.708
			c-1.602-0.271-3.377,0.351-4.559,1.358c-1.354,1.153-1.793,2.604-1.147,3.784c1.305,2.385,4.486,3.583,9.485,3.583
			c1.599,0,3.385-0.122,5.353-0.368c0.281-0.034,0.49-0.277,0.483-0.559C234.448,342.396,232.64,337.619,229.273,336.382z"/>
		<path fill="#D92C5A" d="M155.641,266.661c2.194,0,4.819-0.349,7.867-1.048c0.277-0.064,0.459-0.327,0.424-0.606
			c-1.03-8.123-3.314-12.691-6.789-13.583c-1.311-0.342-2.602,0.454-3.384,2.051c-0.682,1.393-0.86,3.267-0.185,4.752
			c-1.63-0.134-3.324,0.69-4.396,1.812c-1.231,1.284-1.521,2.773-0.759,3.884C149.675,265.747,152.093,266.661,155.641,266.661z"/>
		<path fill="#E16379" d="M121.208,184.832c-0.012,0-0.024,0-0.036,0.003c-1.551,0.008-3.307,0.684-4.337,1.949
			c-0.616-1.511-2.099-2.668-3.581-3.129c-1.698-0.527-3.161-0.125-3.814,1.053c-1.74,3.135,0.013,7.934,5.209,14.26
			c0.108,0.134,0.267,0.202,0.426,0.202c0.105,0,0.212-0.03,0.306-0.093c6.813-4.538,9.885-8.62,9.133-12.13
			C124.234,185.642,122.969,184.832,121.208,184.832z"/>
		<path fill="#A3195B" d="M227.438,296.761c0.249,0,0.472-0.168,0.534-0.415c2.006-7.938,1.545-13.027-1.367-15.123
			c-1.092-0.783-2.585-0.529-3.898,0.676c-1.144,1.048-1.992,2.729-1.906,4.357c-1.472-0.706-3.346-0.57-4.753,0.084
			c-1.616,0.748-2.43,2.026-2.124,3.339c0.815,3.493,5.335,5.873,13.434,7.075C227.384,296.759,227.411,296.761,227.438,296.761z"/>
		<path fill="#A62560" d="M315.105,242.249c-8.106-1.136-13.116-0.138-14.887,2.982c-0.665,1.171-0.249,2.627,1.086,3.802
			c1.164,1.027,2.923,1.679,4.537,1.43c-0.544,1.536-0.207,3.387,0.592,4.717c0.73,1.213,1.741,1.887,2.764,1.887
			c0.262,0,0.525-0.043,0.784-0.134c3.386-1.186,5.269-5.935,5.598-14.115C315.59,242.535,315.386,242.29,315.105,242.249z"/>
		<path fill="#E16379" d="M154.926,164.686c-3.319-1.36-7.876,0.957-13.542,6.866c-0.196,0.204-0.205,0.522-0.021,0.737
			c4.485,5.255,8.33,7.904,11.462,7.904c0.579,0,1.134-0.091,1.664-0.273c1.274-0.437,1.927-1.804,1.706-3.57
			c-0.194-1.538-1.074-3.201-2.453-4.075c1.427-0.79,2.399-2.399,2.681-3.925C156.747,166.598,156.174,165.195,154.926,164.686z"/>
		<path fill="#D71D55" d="M155.84,227.18c-0.086,0.271,0.048,0.562,0.307,0.674c4.219,1.822,7.676,2.732,10.345,2.732
			c2.085,0,3.69-0.557,4.802-1.67c0.95-0.953,0.934-2.47-0.044-3.957c-0.852-1.295-2.375-2.399-3.997-2.575
			c0.932-1.339,1.096-3.213,0.676-4.706c-0.48-1.715-1.641-2.727-2.958-2.628C161.392,215.298,158.32,219.38,155.84,227.18z"/>
		<path fill="#E16379" d="M185.135,178.043c-7.597,3.054-11.44,6.419-11.421,10.004c0.008,1.348,1.096,2.401,2.839,2.757
			c1.515,0.304,3.376,0.007,4.644-1.022c0.294,1.605,1.51,3.041,2.866,3.796c0.707,0.392,1.404,0.585,2.038,0.585
			c0.76,0,1.43-0.279,1.911-0.837c2.345-2.713,1.609-7.77-2.183-15.025C185.697,178.052,185.393,177.944,185.135,178.043z"/>
		<path fill="#A4205E" d="M233.607,271.021c-3.084,7.583-3.334,12.686-0.741,15.164c0.465,0.443,1.052,0.665,1.7,0.665
			c0.709,0,1.489-0.265,2.256-0.794c1.277-0.88,2.349-2.425,2.49-4.05c1.36,0.903,3.238,1.03,4.721,0.574
			c1.702-0.517,2.685-1.672,2.563-3.013c-0.323-3.571-4.468-6.556-12.322-8.869C233.996,270.616,233.714,270.756,233.607,271.021z"
			/>
		<path fill="#D71D55" d="M188.014,322.807c-7.944-1.972-13.032-1.483-15.114,1.437c-0.781,1.098-0.516,2.589,0.691,3.896
			c1.053,1.138,2.757,1.967,4.367,1.885c-0.7,1.476-0.553,3.353,0.107,4.758c0.649,1.379,1.684,2.169,2.791,2.169
			c0.184,0,0.37-0.021,0.557-0.067c3.489-0.83,5.849-5.362,7.014-13.466C188.467,323.138,188.288,322.873,188.014,322.807z"/>
		<path fill="#DB4064" d="M91.818,187.698c1.135,0.075,2.208,0.112,3.217,0.112c6.254,0,10.085-1.409,11.404-4.202
			c0.575-1.216,0.05-2.639-1.371-3.71c-1.238-0.934-3.042-1.472-4.631-1.082c0.427-1.578-0.049-3.398-0.947-4.663
			c-1.029-1.448-2.434-2.01-3.667-1.479c-3.288,1.436-4.808,6.312-4.521,14.494C91.314,187.451,91.536,187.682,91.818,187.698z"/>
		<path fill="#D71D55" d="M238.732,216.421c-1.421,1.071-1.947,2.492-1.373,3.71c1.319,2.799,5.157,4.213,11.427,4.213
			c1.002,0,2.066-0.036,3.191-0.109c0.282-0.018,0.504-0.246,0.515-0.529c0.294-8.182-1.222-13.06-4.508-14.499
			c-1.227-0.529-2.638,0.025-3.67,1.476c-0.899,1.266-1.377,3.086-0.951,4.661C241.777,214.958,239.971,215.489,238.732,216.421z"/>
		<path fill="#D60B52" d="M265.448,192.102c2.479,7.802,5.551,11.884,9.13,12.129c0.057,0.005,0.114,0.007,0.171,0.007
			c1.267,0,2.325-0.992,2.787-2.63c0.42-1.495,0.256-3.369-0.676-4.71c1.623-0.174,3.146-1.28,3.998-2.578
			c0.977-1.486,0.993-3.001,0.043-3.954c-2.534-2.54-7.628-2.185-15.146,1.063C265.495,191.539,265.361,191.83,265.448,192.102z"/>
		<path fill="#E16379" d="M333.387,207.112c-8.1-1.214-13.116-0.245-14.911,2.864c-0.673,1.166-0.268,2.625,1.059,3.811
			c1.156,1.033,2.912,1.713,4.525,1.463c-0.557,1.534-0.233,3.388,0.555,4.724c0.725,1.227,1.738,1.906,2.767,1.906
			c0.256,0,0.513-0.041,0.767-0.129c3.396-1.158,5.315-5.892,5.706-14.068C333.869,207.4,333.667,207.153,333.387,207.112z"/>
		<path fill="#E16379" d="M153.759,286.107c0.847-1.564,0.735-3.075-0.292-3.942c-2.742-2.319-7.788-1.53-15.001,2.341
			c-0.25,0.136-0.357,0.435-0.249,0.697c3.107,7.508,6.487,11.313,10.043,11.313c0.028,0,0.055,0,0.082,0
			c1.346-0.021,2.39-1.121,2.724-2.866c0.292-1.523-0.03-3.379-1.072-4.636C151.596,288.702,153.02,287.472,153.759,286.107z"/>
		<path fill="#A4205E" d="M266.411,151.555c1.498,0.402,3.371,0.22,4.698-0.731c0.194,1.62,1.316,3.131,2.622,3.966
			c0.749,0.479,1.501,0.721,2.185,0.721c0.685,0,1.3-0.241,1.772-0.723c2.51-2.563,2.093-7.654-1.239-15.132
			c-0.116-0.261-0.406-0.39-0.677-0.299c-7.772,2.569-11.818,5.689-12.023,9.27C263.671,149.971,264.692,151.095,266.411,151.555z"
			/>
		<path fill="#A4205E" d="M247.021,189.393c-1.763,0.24-2.917,1.224-3.01,2.566c-0.248,3.578,3.374,7.183,10.761,10.712
			c0.076,0.036,0.158,0.054,0.238,0.054c0.187,0,0.368-0.095,0.471-0.265c4.248-7,5.302-11.998,3.135-14.856
			c-0.813-1.071-2.317-1.263-3.925-0.501c-1.401,0.665-2.706,2.022-3.102,3.604C250.391,189.601,248.561,189.17,247.021,189.393z"/>
		<path fill="#A4205E" d="M172.831,275.647c0.368,0.208,0.765,0.31,1.171,0.31c0.888,0,1.825-0.484,2.629-1.398
			c1.024-1.166,1.687-2.929,1.426-4.541c1.54,0.541,3.389,0.203,4.718-0.596c1.523-0.919,2.194-2.278,1.748-3.551
			c-1.187-3.382-5.937-5.261-14.119-5.584c-0.304-0.013-0.528,0.194-0.567,0.476C168.704,268.871,169.711,273.879,172.831,275.647z"
			/>
		<path fill="#D92C5A" d="M167.206,194.406c-4.883,6.573-6.401,11.449-4.51,14.498c0.475,0.764,1.292,1.167,2.282,1.167
			c0.491,0,1.024-0.1,1.579-0.302c1.457-0.531,2.882-1.76,3.424-3.299c1.091,1.214,2.89,1.834,4.427,1.739
			c1.778-0.075,3.018-0.947,3.236-2.276c0.581-3.543-2.687-7.47-9.712-11.672C167.691,194.119,167.376,194.18,167.206,194.406z"/>
		<path fill="#A62560" d="M297.59,155.803c-1.649-0.663-3.14-0.373-3.885,0.746c-1.983,2.989-0.615,7.91,4.066,14.628
			c0.106,0.153,0.278,0.237,0.452,0.237c0.092,0,0.184-0.021,0.268-0.069c7.15-3.989,10.538-7.815,10.065-11.37
			c-0.177-1.334-1.391-2.242-3.166-2.373c-1.534-0.095-3.351,0.422-4.477,1.603C300.417,157.648,299.031,156.377,297.59,155.803z"/>
		<path fill="#A62560" d="M261.425,298.629C261.424,298.629,261.424,298.629,261.425,298.629c-0.967,0.938-0.975,2.455-0.022,3.959
			c0.831,1.309,2.335,2.438,3.954,2.641c-0.955,1.323-1.149,3.195-0.754,4.695c0.438,1.665,1.498,2.679,2.783,2.679
			c0.043,0,0.086,0,0.13-0.003c3.582-0.188,6.721-4.217,9.33-11.977c0.09-0.269-0.038-0.562-0.295-0.678
			C269.09,296.573,264,296.133,261.425,298.629z"/>
		<path fill="#A3195B" d="M188.7,267.333c0.398,0.258,0.84,0.385,1.301,0.385c0.844,0,1.75-0.426,2.561-1.244
			c1.093-1.099,1.861-2.816,1.699-4.44c1.505,0.639,3.371,0.41,4.746-0.307c1.577-0.823,2.33-2.141,1.962-3.436
			c-0.979-3.452-5.605-5.616-13.752-6.438c-0.27-0.026-0.538,0.163-0.595,0.438C184.995,260.315,185.694,265.377,188.7,267.333z"/>
		<path fill="#E16379" d="M204.606,326.832c0.257-0.118,0.382-0.413,0.29-0.68c-2.689-7.736-5.868-11.734-9.45-11.885
			c-1.33-0.018-2.451,0.979-2.888,2.703c-0.38,1.504-0.167,3.374,0.8,4.688c-1.616,0.218-3.108,1.364-3.926,2.682
			c-0.938,1.513-0.915,3.029,0.061,3.959c1.085,1.028,2.602,1.545,4.541,1.545C196.744,329.845,200.277,328.84,204.606,326.832z"/>
		<path fill="#A62560" d="M118.481,232.116c0.242-1.323-0.631-2.563-2.28-3.234c-1.438-0.587-3.318-0.628-4.753,0.145
			c0.008-1.629-0.92-3.267-2.112-4.259c-1.368-1.136-2.872-1.327-3.927-0.486c-2.807,2.233-3.022,7.338-0.639,15.17
			c0.072,0.235,0.288,0.39,0.527,0.39c0.036,0,0.071-0.004,0.107-0.011C113.437,238.24,117.836,235.646,118.481,232.116z"/>
		<path fill="#A3195B" d="M190.36,214.56c-2.194-2.836-7.295-3.118-15.158-0.842c-0.272,0.08-0.44,0.352-0.39,0.629
			c1.484,8.052,4.02,12.487,7.539,13.178c0.157,0.032,0.312,0.047,0.467,0.047c1.143,0,2.188-0.837,2.797-2.283
			c0.603-1.429,0.674-3.307-0.082-4.753c1.621-0.034,3.281-0.878,4.29-2.057C190.979,217.125,191.185,215.625,190.36,214.56z"/>
		<path fill="#A62560" d="M248.929,164.732c0.031,0,0.063,0,0.095-0.002c1.552-0.023,3.301-0.719,4.318-1.997
			c0.632,1.506,2.128,2.648,3.614,3.092c0.481,0.145,0.941,0.216,1.37,0.216c1.091,0,1.973-0.457,2.433-1.307
			c1.707-3.152-0.097-7.934-5.359-14.208c-0.18-0.218-0.5-0.259-0.732-0.099c-6.765,4.61-9.795,8.725-9.005,12.222
			C245.952,163.94,247.2,164.732,248.929,164.732z"/>
		<path fill="#D92C5A" d="M291.242,253.841c-0.764-1.35-2.21-2.554-3.818-2.836c1.02-1.276,1.308-3.138,0.987-4.654
			c-0.367-1.737-1.428-2.814-2.77-2.814c-0.002,0-0.005,0-0.007,0c-3.586,0.009-6.921,3.877-9.915,11.499
			c-0.103,0.265,0.01,0.563,0.262,0.692c4.467,2.29,8.096,3.435,10.858,3.435c1.744,0,3.142-0.456,4.185-1.373
			C292.035,256.902,292.119,255.388,291.242,253.841z"/>
		<path fill="#DB4064" d="M146.864,153.137c4.05,1.577,7.387,2.366,9.994,2.366c2.304,0,4.035-0.615,5.181-1.851
			c0.917-0.987,0.844-2.502-0.188-3.952c-0.898-1.266-2.459-2.313-4.086-2.43c0.884-1.373,0.979-3.251,0.507-4.729
			c-0.543-1.693-1.705-2.653-3.052-2.52c-3.564,0.376-6.488,4.565-8.686,12.452C146.457,152.747,146.6,153.033,146.864,153.137z"/>
		<path fill="#E71D73" d="M201.813,237.53c-0.305-0.034-0.536,0.172-0.585,0.452c-1.444,8.059-0.629,13.102,2.421,14.989
			c0.387,0.238,0.812,0.357,1.252,0.357c0.859,0,1.778-0.448,2.588-1.302c1.067-1.126,1.797-2.86,1.597-4.48
			c1.52,0.606,3.379,0.336,4.737-0.415c1.558-0.861,2.28-2.193,1.883-3.479C214.65,240.227,209.975,238.165,201.813,237.53z"/>
		<path fill="#A4205E" d="M136.721,167.304c0.447,0,0.882-0.056,1.306-0.17c0,0,0,0,0.001,0c1.3-0.349,2.045-1.668,1.945-3.445
			c-0.087-1.549-0.851-3.269-2.167-4.232c1.479-0.692,2.561-2.231,2.946-3.733c0.443-1.724-0.032-3.163-1.241-3.757
			c-3.22-1.582-7.925,0.409-13.982,5.917c-0.21,0.189-0.241,0.508-0.072,0.734C129.735,164.391,133.516,167.304,136.721,167.304z"/>
		<path fill="#DB4064" d="M208.386,314.586c0.05,0,0.102-0.006,0.154-0.021c7.863-2.283,12.02-5.25,12.356-8.82
			c0.126-1.34-0.851-2.5-2.551-3.023c-1.485-0.46-3.36-0.342-4.723,0.556c-0.134-1.625-1.201-3.174-2.475-4.059
			c-1.463-1.016-2.977-1.067-3.954-0.144c-2.603,2.468-2.374,7.572,0.681,15.168C207.961,314.455,208.167,314.586,208.386,314.586z"
			/>
		<path fill="#E71D73" d="M205.96,198.137c-1.544,0.883-2.245,2.226-1.83,3.506c1.106,3.41,5.811,5.4,13.982,5.915
			c0.012,0.002,0.024,0.002,0.034,0.002c0.268,0,0.5-0.193,0.543-0.463c1.327-8.079,0.438-13.11-2.641-14.952
			c-1.153-0.687-2.621-0.306-3.827,1.003c-1.051,1.14-1.755,2.885-1.531,4.503C209.166,197.072,207.307,197.367,205.96,198.137z"/>
		<path fill="#E16379" d="M235.405,329.516c-0.276,0.058-0.464,0.316-0.434,0.598c0.885,8.139,3.088,12.748,6.547,13.699
			c0.212,0.058,0.424,0.086,0.634,0.086c1.079,0,2.109-0.751,2.788-2.077c0.706-1.379,0.917-3.249,0.268-4.747
			c1.633,0.164,3.336-0.63,4.428-1.733c1.252-1.264,1.569-2.746,0.826-3.867C248.484,328.484,243.422,327.828,235.405,329.516z"/>
		<path fill="#E71D73" d="M109.019,152.874c0.422,0.996,1.416,1.552,2.696,1.552c0.312,0,0.642-0.035,0.984-0.102
			c1.521-0.301,3.119-1.296,3.893-2.732c0.89,1.37,2.565,2.229,4.105,2.4c1.77,0.201,3.126-0.471,3.547-1.749
			c1.12-3.406-1.502-7.789-7.794-13.029c-0.217-0.176-0.536-0.165-0.739,0.03C109.873,144.983,107.622,149.568,109.019,152.874
			C109.018,152.874,109.018,152.874,109.019,152.874z"/>
		<path fill="#DB4064" d="M195.184,195.258c-6.914,4.388-10.078,8.398-9.405,11.919c0.253,1.323,1.515,2.163,3.294,2.19
			c0.03,0.002,0.06,0.002,0.089,0.002c1.529,0,3.252-0.637,4.29-1.854c0.583,1.523,2.04,2.716,3.509,3.208
			c0.524,0.177,1.025,0.263,1.49,0.263c1.033,0,1.878-0.424,2.348-1.227c1.81-3.097,0.166-7.934-4.887-14.376
			C195.733,195.159,195.418,195.105,195.184,195.258z"/>
		<path fill="#A4205E" d="M291.79,260.569c-0.283,0.011-0.511,0.234-0.528,0.517c-0.496,8.175,0.899,13.087,4.149,14.606
			c0.324,0.15,0.662,0.226,1.003,0.226c0.945,0,1.919-0.565,2.703-1.611c0.928-1.241,1.45-3.049,1.064-4.633
			c1.576,0.413,3.396-0.064,4.656-0.964c1.447-1.037,2.009-2.444,1.464-3.676C304.855,261.755,299.975,260.242,291.79,260.569z"/>
		<path fill="#D92C5A" d="M237.473,236.769c0.891,1.27,2.444,2.328,4.072,2.455c-0.892,1.366-1,3.245-0.537,4.726
			c0.5,1.594,1.557,2.55,2.793,2.55c0.08,0,0.16-0.005,0.241-0.011c3.57-0.355,6.519-4.525,8.767-12.398
			c0.079-0.271-0.063-0.558-0.326-0.663c-7.612-3.021-12.715-3.229-15.17-0.611C236.391,233.797,236.452,235.312,237.473,236.769z"
			/>
		<path fill="#A62560" d="M219.055,251.091c-0.248,0.138-0.35,0.441-0.238,0.701c3.2,7.407,6.611,11.162,10.144,11.162
			c0.051,0,0.103,0,0.154-0.003c1.345-0.043,2.373-1.157,2.68-2.909c0.269-1.527-0.082-3.378-1.143-4.617
			c1.596-0.336,3-1.588,3.718-2.961c0.825-1.58,0.691-3.088-0.351-3.942C231.243,246.249,226.209,247.114,219.055,251.091z"/>
		<path fill="#A3195B" d="M122.61,217.889c1.433-1.055,1.977-2.471,1.417-3.692c-1.49-3.263-6.382-4.695-14.57-4.276
			c-0.282,0.016-0.508,0.241-0.521,0.525c-0.392,8.179,1.068,13.072,4.338,14.549c0.316,0.144,0.645,0.213,0.976,0.213
			c0.955,0,1.934-0.577,2.71-1.645c0.913-1.254,1.413-3.068,1.005-4.647C119.544,219.309,121.359,218.805,122.61,217.889z"/>
		<path fill="#D92C5A" d="M207.041,261.344c-0.282,0.018-0.505,0.246-0.518,0.529c-0.326,8.182,1.172,13.066,4.452,14.517
			c0.311,0.138,0.634,0.204,0.959,0.204c0.959,0,1.942-0.585,2.716-1.668c0.904-1.261,1.388-3.076,0.968-4.653
			c1.583,0.387,3.393-0.134,4.635-1.062c1.426-1.064,1.958-2.485,1.389-3.705C220.127,262.254,215.226,260.864,207.041,261.344z"/>
		<path fill="#D60B52" d="M288.908,151.901L288.908,151.901c0.306,0.131,0.621,0.195,0.937,0.195c0.968,0,1.955-0.596,2.724-1.693
			c0.891-1.27,1.358-3.094,0.923-4.667c1.585,0.372,3.389-0.166,4.624-1.104c1.416-1.08,1.934-2.505,1.353-3.719
			c-1.546-3.234-6.472-4.579-14.642-4.018c-0.283,0.02-0.504,0.25-0.513,0.531C284.068,145.613,285.614,150.483,288.908,151.901z"/>
		<path fill="#A4205E" d="M270.544,243.445c-0.583-1.211-2.015-1.693-3.746-1.271c-1.505,0.374-3.052,1.443-3.756,2.916
			c-0.955-1.324-2.669-2.099-4.218-2.197c-1.759-0.116-3.101,0.624-3.459,1.919c-0.953,3.46,1.879,7.71,8.418,12.636
			c0.099,0.075,0.215,0.111,0.332,0.111c0.148,0,0.297-0.06,0.404-0.176C270.073,251.364,272.1,246.676,270.544,243.445z"/>
		<path fill="#D60B52" d="M165.497,165.791c0.583,0.224,1.201,0.336,1.854,0.336c3.094,0,6.964-2.509,11.538-7.49
			c0.191-0.209,0.194-0.527,0.005-0.738c-5.448-6.111-9.922-8.586-13.288-7.347c0,0,0,0-0.001,0
			c-1.264,0.465-1.887,1.847-1.626,3.608c0.227,1.532,1.141,3.177,2.539,4.018c-1.411,0.822-2.349,2.455-2.598,3.985
			C163.636,163.919,164.24,165.309,165.497,165.791z"/>
		<path fill="#D60B52" d="M168.38,297.975c-0.567-1.223-1.999-1.724-3.73-1.319c-1.509,0.353-3.07,1.403-3.793,2.866
			c-0.937-1.336-2.641-2.135-4.188-2.255c-1.757-0.127-3.107,0.581-3.484,1.874c-1,3.447,1.776,7.735,8.251,12.745
			c0.099,0.077,0.219,0.116,0.337,0.116c0.146,0,0.292-0.059,0.4-0.172C167.804,305.889,169.894,301.228,168.38,297.975z"/>
		<path fill="#D60B52" d="M204.015,290.353c0.037,0.007,0.073,0.011,0.11,0.011c0.237,0,0.453-0.152,0.526-0.387
			c2.429-7.818,2.242-12.924-0.553-15.173c-1.048-0.848-2.553-0.665-3.929,0.463c-1.198,0.985-2.135,2.618-2.137,4.249
			c-1.429-0.783-3.312-0.746-4.753-0.172c-1.651,0.661-2.532,1.896-2.297,3.222C191.607,286.099,195.993,288.72,204.015,290.353z"/>
		<path fill="#D60B52" d="M274.959,278.178c0.419,0,0.869-0.066,1.339-0.202c1.489-0.433,2.993-1.563,3.639-3.063
			c1.005,1.285,2.748,1.995,4.298,2.034c1.744,0.075,3.075-0.743,3.383-2.053c0.818-3.493-2.179-7.631-8.905-12.298
			c-0.232-0.161-0.548-0.118-0.732,0.095c-5.315,6.227-7.158,10.991-5.477,14.161C272.962,277.715,273.853,278.178,274.959,278.178z
			"/>
		<path fill="#D60B52" d="M132.105,179.705c-1.219,8.095-0.265,13.112,2.838,14.914c0.374,0.217,0.777,0.322,1.193,0.322
			c0.88,0,1.814-0.474,2.621-1.375c1.036-1.155,1.716-2.909,1.471-4.521c1.532,0.558,3.387,0.236,4.722-0.549
			c1.535-0.901,2.22-2.255,1.788-3.531c-1.152-3.397-5.883-5.325-14.062-5.73C132.411,179.244,132.149,179.425,132.105,179.705z"/>
		<path fill="#D92C5A" d="M185.137,174.824c0.071,0,0.144-0.013,0.213-0.043c7.551-3.167,11.343-6.591,11.271-10.174
			c-0.027-1.347-1.131-2.384-2.879-2.713c-1.515-0.282-3.375,0.045-4.63,1.093c-0.318-1.601-1.555-3.019-2.921-3.753
			c-1.57-0.841-3.083-0.723-3.944,0.311c-2.305,2.747-1.496,7.791,2.406,14.991C184.752,174.719,184.94,174.824,185.137,174.824z"/>
		<path fill="#D60B52" d="M198.085,184.254c-1.471,0.708-2.537,2.259-2.907,3.764c-0.424,1.729,0.067,3.165,1.282,3.746
			c0.699,0.333,1.465,0.501,2.298,0.501c3.022,0,6.917-2.197,11.622-6.563c0.208-0.193,0.235-0.512,0.064-0.737
			c-4.944-6.526-9.21-9.344-12.658-8.384c-1.297,0.361-2.029,1.689-1.911,3.465C195.979,181.592,196.759,183.303,198.085,184.254z"
			/>
		<path fill="#A62560" d="M217.329,351.722c-1.489,0.433-2.994,1.563-3.64,3.061c-1.005-1.285-2.748-1.993-4.298-2.031
			c-1.803-0.087-3.075,0.74-3.383,2.053c-0.818,3.492,2.178,7.63,8.904,12.298c0.096,0.066,0.206,0.099,0.314,0.099
			c0.156,0,0.311-0.067,0.418-0.194c5.317-6.227,7.16-10.991,5.478-14.16C220.492,351.655,219.035,351.225,217.329,351.722z"/>
		<path fill="#DB4064" d="M323.156,179.262c-0.984-1.201-2.616-2.139-4.248-2.142c0.784-1.429,0.75-3.31,0.175-4.751
			c-0.66-1.65-1.885-2.546-3.22-2.301c-3.532,0.625-6.154,5.01-7.795,13.032c-0.056,0.277,0.106,0.551,0.377,0.635
			c3.635,1.132,6.684,1.697,9.133,1.697c2.816,0,4.836-0.749,6.041-2.242C324.462,182.141,324.286,180.637,323.156,179.262z"/>
		<path fill="#A4205E" d="M192.407,309.431c1.383-0.704,2.649-2.096,3.002-3.688c1.229,1.071,3.079,1.444,4.605,1.188
			c1.756-0.288,2.88-1.304,2.936-2.648c0.147-3.585-3.571-7.088-11.053-10.41c-0.263-0.116-0.563-0.016-0.703,0.23
			c-4.054,7.113-4.97,12.14-2.723,14.936c0.483,0.602,1.185,0.908,1.994,0.908C191.067,309.945,191.73,309.774,192.407,309.431z"/>
		<path fill="#E71D73" d="M316.559,225.241c-0.029,0-0.06,0-0.088,0c-1.346,0.023-2.389,1.125-2.72,2.872
			c-0.29,1.524,0.035,3.379,1.08,4.631c-1.602,0.316-3.023,1.55-3.76,2.914c-0.845,1.566-0.73,3.077,0.299,3.944
			c1.022,0.86,2.364,1.291,4.018,1.291c2.786,0,6.458-1.223,10.979-3.66c0.249-0.134,0.356-0.435,0.248-0.695
			C323.496,229.041,320.113,225.241,316.559,225.241z"/>
		<path fill="#E16379" d="M218.862,220.682c0.483,0.641,1.212,0.971,2.064,0.971c0.576,0,1.207-0.151,1.857-0.457
			c1.403-0.66,2.712-2.012,3.115-3.593c1.193,1.11,3.028,1.529,4.562,1.332c1.766-0.235,2.923-1.216,3.021-2.559
			c0.259-3.576-3.348-7.193-10.725-10.749c-0.253-0.12-0.562-0.031-0.709,0.209C217.776,212.821,216.704,217.815,218.862,220.682z"
			/>
		<path fill="#E71D73" d="M285.566,198.236c-0.546,1.23,0.012,2.64,1.458,3.68c1.259,0.905,3.076,1.392,4.653,0.975
			c-0.391,1.584,0.127,3.393,1.053,4.637c0.782,1.051,1.757,1.618,2.705,1.618c0.34,0,0.676-0.073,0.999-0.224
			c3.252-1.511,4.66-6.421,4.182-14.596c-0.016-0.282-0.244-0.506-0.527-0.519C291.907,193.489,287.023,194.959,285.566,198.236z"/>
		<path fill="#E16379" d="M295.918,240.021c1.757-0.286,2.885-1.299,2.944-2.645c0.158-3.58-3.553-7.092-11.027-10.436
			c-0.259-0.112-0.56-0.016-0.703,0.229c-4.07,7.104-4.999,12.128-2.759,14.932c0.483,0.604,1.186,0.913,1.998,0.913
			c0.602,0,1.263-0.171,1.938-0.513c1.383-0.701,2.653-2.09,3.009-3.682C292.545,239.899,294.39,240.271,295.918,240.021z"/>
		<path fill="#A62560" d="M176.78,316.536c0.918,1.349,2.609,2.173,4.154,2.315c1.76,0.152,3.117-0.534,3.512-1.823
			c1.048-3.43-1.667-7.757-8.067-12.863c-0.222-0.179-0.54-0.159-0.738,0.045c-5.717,5.861-7.873,10.495-6.406,13.768
			c0.431,0.964,1.399,1.493,2.636,1.493c0.34,0,0.7-0.039,1.075-0.12C174.461,319.017,176.037,317.99,176.78,316.536z"/>
		<path fill="#A62560" d="M336.006,186.366c-7.919,2.077-12.154,4.935-12.585,8.496c-0.161,1.336,0.786,2.52,2.471,3.088
			c1.469,0.497,3.349,0.43,4.737-0.433c0.091,1.631,1.116,3.208,2.366,4.125c0.78,0.572,1.583,0.862,2.315,0.862
			c0.613,0,1.177-0.204,1.634-0.615c2.667-2.399,2.572-7.508-0.282-15.181C336.565,186.446,336.291,186.309,336.006,186.366z"/>
		<path fill="#E71D73" d="M142.506,263.027c-0.013-0.282-0.237-0.511-0.52-0.527c-8.166-0.47-13.083,0.944-14.591,4.2
			c-0.565,1.222-0.029,2.64,1.401,3.701c1.246,0.927,3.055,1.435,4.638,1.048c-0.416,1.577,0.073,3.396,0.98,4.654
			c0.776,1.076,1.757,1.659,2.716,1.659c0.327,0,0.652-0.067,0.965-0.207C141.37,276.095,142.854,271.206,142.506,263.027z"/>
		<path fill="#A4205E" d="M132.664,234.854c0.098,0.07,0.213,0.107,0.328,0.107c0.151,0,0.299-0.063,0.408-0.181
			c5.509-6.056,7.499-10.762,5.917-13.982c-0.594-1.21-2.03-1.688-3.757-1.241c-1.502,0.385-3.042,1.467-3.733,2.945
			c-0.965-1.314-2.685-2.078-4.234-2.165c-1.761-0.111-3.096,0.644-3.444,1.945C123.222,225.749,126.087,229.978,132.664,234.854z"
			/>
		<path fill="#D71D55" d="M128.94,149.506c1.888,0.225,3.607,0.336,5.155,0.336c5.114,0,8.356-1.22,9.663-3.645
			c0.638-1.187,0.189-2.635-1.173-3.779c-1.186-0.996-2.958-1.618-4.567-1.325c0.511-1.552,0.133-3.396-0.697-4.706
			c-0.95-1.504-2.324-2.135-3.584-1.672c-3.358,1.259-5.135,6.049-5.282,14.234C128.449,149.232,128.66,149.474,128.94,149.506z"/>
		<path fill="#D92C5A" d="M286.927,209.709c-3.529-0.694-7.547,2.451-11.972,9.342c-0.153,0.236-0.1,0.553,0.122,0.729
			c4.75,3.768,8.63,5.661,11.585,5.661c1.035,0,1.957-0.232,2.763-0.697c1.165-0.674,1.544-2.141,0.988-3.83
			c-0.485-1.475-1.668-2.938-3.19-3.529c1.248-1.05,1.894-2.818,1.877-4.368C289.081,211.237,288.248,209.97,286.927,209.709z"/>
		<path fill="#E16379" d="M128.548,250.746c-0.353-3.571-4.524-6.521-12.396-8.769c-0.272-0.079-0.56,0.064-0.664,0.327
			c-3.021,7.609-3.228,12.715-0.614,15.173c0.462,0.433,1.043,0.649,1.682,0.649c0.714,0,1.501-0.273,2.271-0.811
			c1.271-0.892,2.331-2.447,2.458-4.074c1.366,0.896,3.246,0.999,4.726,0.538C127.707,253.247,128.679,252.085,128.548,250.746z"/>
		<path fill="#D71D55" d="M289.654,174.291c-7.813-2.442-12.921-2.266-15.174,0.529c-0.846,1.048-0.67,2.554,0.459,3.931
			c0.983,1.199,2.612,2.14,4.244,2.144c-0.786,1.429-0.753,3.31-0.179,4.751c0.589,1.479,1.637,2.339,2.8,2.339
			c0.138,0,0.277-0.011,0.418-0.036c3.532-0.622,6.159-5.003,7.807-13.021C290.086,174.65,289.924,174.375,289.654,174.291z"/>
		<path fill="#D71D55" d="M290.411,280.603c-8.182,0.327-12.931,2.208-14.116,5.591c-0.445,1.271,0.226,2.632,1.75,3.551
			c1.329,0.798,3.177,1.14,4.718,0.594c-0.26,1.609,0.401,3.371,1.426,4.535c0.805,0.917,1.744,1.401,2.631,1.401
			c0.408,0,0.804-0.102,1.173-0.31c3.12-1.771,4.124-6.78,2.985-14.889C290.939,280.799,290.684,280.607,290.411,280.603z"/>
		<path fill="#E16379" d="M259.885,168.931c-0.224-0.161-0.543-0.136-0.736,0.073c-5.509,6.055-7.499,10.761-5.918,13.982
			c0.447,0.91,1.373,1.402,2.539,1.402c0.383,0,0.792-0.054,1.218-0.161c1.502-0.387,3.042-1.468,3.733-2.945
			c0.965,1.316,2.685,2.078,4.234,2.167c1.789,0.099,3.096-0.646,3.445-1.948C269.326,178.039,266.461,173.809,259.885,168.931z"/>
		<path fill="#E16379" d="M253.322,305.719c1.173-0.663,1.564-2.128,1.023-3.824c-0.473-1.476-1.641-2.949-3.156-3.555
			c1.258-1.039,1.92-2.802,1.917-4.353c-0.002-1.78-0.823-3.054-2.141-3.327c-3.514-0.721-7.569,2.378-12.059,9.227
			c-0.155,0.237-0.105,0.552,0.114,0.73c4.751,3.841,8.635,5.772,11.599,5.772C251.628,306.39,252.529,306.166,253.322,305.719z"/>
		<path fill="#DB4064" d="M274.689,227.759c-0.226-1.327-1.471-2.192-3.249-2.257c-1.562-0.067-3.333,0.542-4.417,1.764
			c-0.552-1.534-1.984-2.752-3.443-3.277c-1.675-0.598-3.152-0.258-3.857,0.889c-1.871,3.061-0.324,7.93,4.6,14.472
			c0.108,0.142,0.272,0.22,0.44,0.22c0.098,0,0.197-0.026,0.287-0.08C272.049,235.24,275.293,231.294,274.689,227.759z"/>
		<path fill="#A4205E" d="M298.975,186.881c0.245,1.614,1.416,3.088,2.747,3.882c0.729,0.437,1.455,0.652,2.114,0.652
			c0.722,0,1.364-0.261,1.841-0.779c2.427-2.64,1.847-7.716-1.72-15.086c-0.124-0.254-0.42-0.375-0.686-0.275
			c-7.688,2.814-11.633,6.06-11.723,9.646c-0.034,1.347,1.02,2.436,2.752,2.843C295.81,188.118,297.675,187.873,298.975,186.881z"/>
		<path fill="#D71D55" d="M314.821,207.467c0.174,0,0.345-0.084,0.452-0.236c4.682-6.718,6.05-11.639,4.069-14.626
			c-0.744-1.123-2.231-1.409-3.885-0.751c-1.44,0.577-2.828,1.849-3.323,3.402c-1.127-1.182-2.94-1.729-4.477-1.604
			c-1.775,0.13-2.989,1.04-3.166,2.374c-0.473,3.553,2.912,7.378,10.062,11.372C314.637,207.443,314.729,207.467,314.821,207.467z"
			/>
		<path fill="#A3195B" d="M230.23,229.08c-1.509-0.359-3.376-0.129-4.678,0.852c-0.236-1.613-1.396-3.094-2.724-3.896
			c-1.525-0.923-3.041-0.88-3.955,0.105c-2.442,2.625-1.895,7.703,1.629,15.093c0.094,0.198,0.291,0.314,0.497,0.314
			c0.063,0,0.125-0.011,0.186-0.032c7.705-2.768,11.669-5.991,11.782-9.578C233.009,230.593,231.96,229.497,230.23,229.08z"/>
		<path fill="#A62560" d="M159.597,285.014c0.778,1.069,1.757,1.648,2.713,1.648c0.33,0,0.659-0.068,0.975-0.213
			c3.269-1.474,4.73-6.369,4.343-14.549c-0.013-0.281-0.238-0.51-0.521-0.524c-8.177-0.424-13.079,1.007-14.572,4.269v0.003
			c-0.56,1.224-0.017,2.638,1.417,3.692c1.249,0.919,3.06,1.429,4.644,1.026C158.188,281.945,158.685,283.76,159.597,285.014z"/>
		<path fill="#A62560" d="M158.471,239.344c0.25-0.131,0.36-0.432,0.255-0.694c-3.048-7.575-6.406-11.413-9.982-11.413
			c-0.01,0-0.021,0-0.03,0c-1.346,0.008-2.401,1.097-2.753,2.84c-0.307,1.521-0.003,3.379,1.028,4.644
			c-1.605,0.297-3.042,1.515-3.795,2.871c-0.863,1.556-0.766,3.068,0.254,3.948c1.034,0.891,2.406,1.336,4.11,1.336
			C150.33,242.875,153.978,241.696,158.471,239.344z"/>
		<path fill="#A62560" d="M113.341,172.063c-0.187,0.211-0.183,0.531,0.01,0.738c4.581,4.942,8.452,7.433,11.543,7.433
			c0.664,0,1.292-0.114,1.884-0.345c1.254-0.49,1.852-1.885,1.557-3.641c-0.256-1.528-1.203-3.154-2.616-3.968
			c1.393-0.851,2.299-2.498,2.519-4.035c0.25-1.762-0.38-3.14-1.646-3.598C123.216,163.431,118.759,165.927,113.341,172.063z"/>
		<path fill="#DB4064" d="M268.927,265.615c0.862-1.556,0.764-3.068-0.256-3.946c-2.715-2.337-7.77-1.597-15.022,2.201
			c-0.251,0.132-0.361,0.433-0.255,0.695c3.053,7.57,6.413,11.409,9.987,11.409c0.011,0,0.021,0,0.032,0c0,0,0,0,0.001,0
			c1.346-0.009,2.4-1.1,2.751-2.845c0.305-1.521,0-3.376-1.03-4.642C266.741,268.191,268.176,266.973,268.927,265.615z"/>
		<path fill="#D92C5A" d="M227.634,200.347c2.866,0,6.665-1.511,11.349-4.522c0.238-0.153,0.322-0.461,0.193-0.713
			c-3.719-7.297-7.417-10.819-10.986-10.481c-1.341,0.129-2.295,1.307-2.49,3.077c-0.171,1.541,0.297,3.363,1.434,4.532
			c-1.572,0.437-2.894,1.777-3.522,3.195c-0.723,1.627-0.492,3.124,0.602,3.909C225.145,200.014,226.286,200.347,227.634,200.347z"
			/>
		<path fill="#DB4064" d="M205.899,336.487c-0.042-0.279-0.309-0.458-0.571-0.469c-8.178,0.404-12.908,2.332-14.061,5.728
			c-0.433,1.274,0.251,2.628,1.785,3.531c1.335,0.785,3.188,1.108,4.723,0.549c-0.245,1.613,0.435,3.37,1.47,4.523
			c0.807,0.901,1.741,1.375,2.621,1.375c0.416,0,0.82-0.105,1.193-0.323C206.162,349.603,207.119,344.584,205.899,336.487z"/>
		<path fill="#A4205E" d="M258.923,314.029c-1.537-0.232-3.373,0.17-4.582,1.265c-0.379-1.588-1.668-2.958-3.06-3.641
			c-1.601-0.783-3.105-0.606-3.93,0.456c-2.2,2.834-1.202,7.844,2.966,14.891c0.102,0.174,0.285,0.271,0.474,0.271
			c0.079,0,0.157-0.018,0.232-0.052c7.427-3.447,11.087-7.009,10.881-10.589C261.827,315.285,260.685,314.289,258.923,314.029z"/>
		<path fill="#D71D55" d="M224.15,332.08c0.616,0.252,1.276,0.379,1.979,0.379c3.073,0,6.954-2.421,11.572-7.226
			c0.196-0.202,0.206-0.522,0.022-0.738c-5.312-6.233-9.732-8.81-13.116-7.647h-0.001c-1.274,0.435-1.929,1.804-1.708,3.57
			c0.191,1.538,1.068,3.201,2.447,4.077c-1.429,0.79-2.404,2.399-2.688,3.925C222.333,330.167,222.905,331.57,224.15,332.08z"/>
		<path fill="#D71D55" d="M173.141,295.313c1.542,0.148,3.359-0.347,4.511-1.502c0.46,1.564,1.819,2.866,3.245,3.473
			c0.613,0.263,1.205,0.39,1.747,0.39c0.907,0,1.673-0.357,2.154-1.05c2.051-2.943,0.793-7.895-3.739-14.714
			c-0.156-0.232-0.467-0.31-0.715-0.181c-7.239,3.823-10.708,7.572-10.314,11.14C170.177,294.207,171.369,295.143,173.141,295.313z"
			/>
		<path fill="#D92C5A" d="M276.549,157.487c-5.275,6.262-7.088,11.039-5.389,14.193c0.46,0.854,1.344,1.313,2.44,1.313
			c0.426,0,0.883-0.069,1.36-0.211c1.488-0.441,2.986-1.579,3.622-3.083c1.014,1.277,2.76,1.977,4.31,2.005
			c0.037,0.002,0.073,0.002,0.11,0.002c1.723,0,2.969-0.789,3.261-2.074c0.796-3.496-2.225-7.617-8.981-12.243
			C277.048,157.229,276.732,157.268,276.549,157.487z"/>
		<path fill="#E71D73" d="M304.016,149.257c-0.279,1.756,0.33,3.144,1.588,3.619c0.579,0.22,1.191,0.329,1.837,0.329
			c3.1,0,6.966-2.523,11.529-7.535c0.19-0.209,0.191-0.527,0.002-0.738c-5.477-6.09-9.957-8.549-13.315-7.295
			c-1.262,0.47-1.881,1.853-1.614,3.613c0.232,1.534,1.153,3.174,2.554,4.011C305.19,146.089,304.258,147.725,304.016,149.257z"/>
		<path fill="#D92C5A" d="M266.865,293.694c0.044,0.011,0.087,0.015,0.13,0.015c0.229,0,0.441-0.144,0.52-0.367
			c2.711-7.728,2.712-12.836,0.002-15.184c-1.016-0.882-2.53-0.762-3.943,0.318c-1.234,0.94-2.23,2.537-2.292,4.168
			c-1.402-0.837-3.284-0.867-4.744-0.346c-1.674,0.6-2.598,1.801-2.412,3.133C254.621,288.984,258.907,291.764,266.865,293.694z"/>
		<path fill="#D71D55" d="M104.882,206.637c0.172-1.541-0.295-3.363-1.431-4.532c1.573-0.437,2.896-1.774,3.526-3.192
			c0.724-1.625,0.494-3.123-0.598-3.91c-2.909-2.09-7.881-0.917-14.773,3.508c-0.238,0.152-0.322,0.46-0.192,0.712
			c3.55,6.98,7.083,10.512,10.508,10.512c0.157,0,0.312-0.007,0.468-0.021C103.731,209.585,104.687,208.405,104.882,206.637z"/>
		<path fill="#D92C5A" d="M240.833,309.134c0.258-3.576-3.35-7.191-10.728-10.746c-0.252-0.123-0.561-0.034-0.709,0.211
			c-4.27,6.984-5.34,11.981-3.183,14.845c0.483,0.642,1.212,0.971,2.064,0.971c0.577,0,1.209-0.15,1.859-0.458
			c1.403-0.661,2.711-2.013,3.112-3.594c1.195,1.112,3.033,1.538,4.564,1.332C239.579,311.457,240.735,310.477,240.833,309.134z"/>
		<path fill="#A62560" d="M159.318,177.31c-1.637,3.193,0.27,7.932,5.67,14.086c0.109,0.122,0.261,0.188,0.415,0.188
			c0.112,0,0.224-0.035,0.321-0.104c6.662-4.758,9.601-8.937,8.735-12.418c-0.326-1.307-1.656-2.115-3.411-2.006
			c-1.55,0.061-3.282,0.792-4.27,2.09c-0.666-1.489-2.187-2.6-3.682-3.011C161.388,175.661,159.936,176.115,159.318,177.31z"/>
		<path fill="#D60B52" d="M144.344,250.596c1.496-0.964,2.124-2.344,1.64-3.6c-1.289-3.347-6.094-5.078-14.282-5.151
			c-0.002,0-0.004,0-0.005,0c-0.281,0-0.518,0.211-0.547,0.49c-0.888,8.141,0.272,13.115,3.445,14.787
			c0.352,0.188,0.725,0.275,1.106,0.275c0.91,0,1.864-0.514,2.662-1.48c0.987-1.196,1.595-2.978,1.286-4.581
			C141.196,251.835,143.041,251.436,144.344,250.596z"/>
		<path fill="#A62560" d="M265.063,205.238c-1.218,0.959-2.188,2.571-2.223,4.202c-1.415-0.813-3.297-0.815-4.748-0.269
			c-1.666,0.628-2.57,1.844-2.363,3.174c0.553,3.544,4.884,6.253,12.871,8.054c0.041,0.009,0.082,0.013,0.122,0.013
			c0.232,0,0.446-0.148,0.523-0.376c2.585-7.771,2.502-12.879-0.244-15.182C267.97,203.99,266.462,204.139,265.063,205.238z"/>
		<path fill="#D60B52" d="M300.052,227.998c0.054,0,0.109-0.009,0.163-0.024c7.823-2.416,11.929-5.454,12.204-9.033h-0.001
			c0.104-1.343-0.893-2.483-2.603-2.979c-1.489-0.429-3.364-0.284-4.712,0.639c-0.162-1.625-1.255-3.154-2.544-4.018
			c-1.479-0.99-2.994-1.018-3.956-0.075c-2.559,2.514-2.242,7.613,0.942,15.155C299.632,227.871,299.836,227.998,300.052,227.998z"
			/>
	</g>
</g>
</svg>
